<svg width="187" height="187" viewBox="0 0 187 187" fill="none" xmlns="http://www.w3.org/2000/svg">
<path d="M105.188 171.417H81.8125V175.313H105.188V171.417Z" fill="#757575"/>
<path d="M99.3444 183.104H87.6569L85.709 175.312H101.292L99.3444 183.104Z" fill="#616161"/>
<path d="M93.5007 175.312H85.709L87.6569 183.104H93.5007V175.312Z" fill="#424242"/>
<path d="M163.625 70.125C163.625 78.8906 161.572 87.6562 158.233 96.1141L28.9772 96.6439C25.5177 88.0225 23.375 79.0737 23.375 70.125C23.375 61.9515 24.4658 54.6624 26.4878 48.2109C26.4878 48.2109 35.0625 19.4792 93.5 19.4792C151.937 19.4792 160.473 48.0863 160.473 48.0863C162.522 54.5689 163.625 61.9009 163.625 70.125Z" fill="#E8E8E8"/>
<path d="M26.4961 48.2109C29.8543 43.1386 37.0265 38.9583 46.7505 38.9583L53.4163 16.4521C44.3156 17.5313 31.1516 33.3717 26.4961 48.2109Z" fill="#B71C1C"/>
<path d="M160.504 48.2109C157.146 43.1386 149.974 38.9583 140.25 38.9583L133.584 16.4521C142.685 17.5313 155.849 33.3717 160.504 48.2109Z" fill="#B71C1C"/>
<path d="M140.242 89.6042C128.69 89.6042 58.3005 89.6042 46.7494 89.6042C39.1681 89.6042 32.6582 92.6195 28.9883 96.64C43.6132 133.054 81.8119 163.625 81.8119 163.625H105.179C105.179 163.625 143.378 133.054 158.003 96.64C154.329 92.6195 147.823 89.6042 140.242 89.6042Z" fill="#1A237E"/>
<path d="M112.971 81.8125C96.8348 81.8125 90.1574 81.8125 74.0208 81.8125C58.4375 81.8125 52.5937 84.7344 46.75 89.6042C46.75 89.6042 54.5417 120.771 85.7083 163.625H101.292C132.458 120.771 140.242 89.6042 140.242 89.6042C134.398 84.7344 128.555 81.8125 112.971 81.8125Z" fill="#283593"/>
<path d="M93.5007 77.9167C81.8132 77.9167 74.0215 81.8125 74.0215 81.8125C74.0215 132.84 89.6048 163.625 89.6048 163.625H97.3965C97.3965 163.625 112.98 132.84 112.98 81.8125C112.98 81.8125 105.188 77.9167 93.5007 77.9167Z" fill="#303F9F"/>
<path d="M133.584 16.4521C131.2 13.3276 125.874 10.098 119.427 8.65654C115.695 7.82673 112.114 7.61246 109.083 7.93192L77.8543 7.92413C74.8351 7.61246 71.2782 7.83063 67.5732 8.65654C61.1256 10.098 55.8 13.3238 53.4158 16.4521C53.4158 16.4521 46.75 29.2188 46.75 38.9583C46.75 38.9583 54.0547 31.6536 66.7161 31.6536C72.0729 31.6536 74.0208 32.6276 74.0208 32.6276C74.0208 32.6276 76.9427 21.4271 93.5 21.4271C110.057 21.4271 112.979 32.6276 112.979 32.6276C112.979 32.6276 114.927 31.6536 120.284 31.6536C132.945 31.6536 140.25 38.9583 140.25 38.9583C140.25 29.2188 133.584 16.4521 133.584 16.4521Z" fill="#D32F2F"/>
<path d="M93.5007 27.2708C101.627 27.2708 108.792 29.4798 112.98 32.6276C112.98 17.0443 109.084 7.93192 109.084 7.93192C105.675 5.35677 100.334 3.89584 93.5007 3.89584C86.6674 3.89584 81.3262 5.35677 77.855 7.92802C77.855 7.92802 74.0215 17.0443 74.0215 32.6276C78.2095 29.4837 85.3778 27.2708 93.5007 27.2708Z" fill="#E53935"/>
<path d="M56.2175 70.6315L52.3918 65.6097C54.7371 64.1137 56.0032 62.2632 56.0032 59.205C56.0032 57.2843 54.9786 55.352 53.3969 54.2768C51.7568 53.1703 49.6569 53.0301 47.4869 53.8989L44.9585 54.8923C43.634 55.4377 42.3483 55.9831 41.1406 56.5675L42.2315 75.5402C43.4002 74.9948 44.6858 74.4494 46.0104 73.9429L45.7182 68.6407L48.4492 67.5499C48.5895 67.4914 48.7102 67.4369 48.8505 67.3784L52.2476 71.8002C53.5683 71.3717 54.854 71.021 56.2175 70.6315ZM45.4923 64.5384L45.1884 59.0141L48.9362 57.5142C49.8868 57.1402 50.6581 57.1324 51.2152 57.5025C51.7957 57.8999 52.1074 58.6712 52.1074 59.205C52.1074 60.9698 51.8775 61.9827 47 63.9345L45.4923 64.5384Z" fill="#283593"/>
<path d="M88.3184 46.8279L78.2671 66.9304C76.7088 67.0473 75.1894 67.2031 73.709 67.3979L83.8771 47.0227H83.9161C85.3575 46.9448 86.799 46.8669 88.3184 46.8279Z" fill="#D32F2F"/>
<path d="M102.033 46.9838H101.994L97.3965 53.5677L92.6669 46.8396L88.6309 54.9118V66.3071C89.9165 66.2681 91.2021 66.2292 92.5267 66.2292V53.4119L97.3965 60.3854L102.266 53.4119V66.4629C103.591 66.5019 104.876 66.6188 106.162 66.6967V47.2175C104.799 47.1006 103.435 47.0227 102.033 46.9838Z" fill="#283593"/>
<path d="M64.9837 49.2433C63.6591 49.4771 62.3735 49.7498 61.0879 50.0225L61.7891 69.3458C63.0748 69.0731 64.3604 68.8277 65.685 68.5939C66.7875 68.3953 67.9095 68.2121 69.0354 68.0407L71.143 63.8176C69.2341 64.0748 67.3952 64.4098 65.5447 64.7293L65.4123 61.0867C67.9368 60.6425 70.5119 60.2491 73.1455 59.9257V56.0026C70.4652 56.326 67.8433 56.7194 65.2681 57.1597L65.1279 53.2444C68.0108 52.7067 70.9833 52.2509 74.0221 51.8769V47.8876C70.9482 48.2577 68.2991 48.6784 64.9915 49.2472L64.9837 49.2433Z" fill="#283593"/>
<path d="M141.302 63.7358L146.756 56.996C145.626 56.4506 144.419 55.8662 143.133 55.3208L139.588 59.7231L136.666 52.9054C135.107 52.399 133.51 51.9315 131.835 51.464L136.822 63.1125L130.744 70.6315C132.147 71.021 133.471 71.4106 134.796 71.8002L138.575 67.1252L141.575 74.1767C143.445 74.9169 145.159 75.696 146.795 76.5142L141.302 63.7358Z" fill="#283593"/>
<path d="M123.772 69.0731C125.291 69.3458 126.733 69.6575 128.174 70.0081L121.695 49.1849L121.43 49.1381C120.145 48.9044 118.89 48.7057 117.457 48.4836L117.418 48.5849L109.977 67.0512C111.34 67.1681 112.665 67.3239 113.989 67.4797L115.641 63.3891C117.951 63.7865 120.211 64.2345 122.42 64.7293L123.772 69.0731ZM117.137 59.6959L119.253 54.4637L121.103 60.4477C119.798 60.1828 118.477 59.9335 117.137 59.6959Z" fill="#283593"/>
</svg>
