<svg width="35" height="35" viewBox="0 0 35 35" fill="none" xmlns="http://www.w3.org/2000/svg">
<circle cx="17.5" cy="17.5" r="17.5" fill="#464646"/>
<g clip-path="url(#clip0_509_1359)">
<path d="M18.0006 6.99976C15.2849 6.99976 14.944 7.01163 13.8774 7.06017C12.8128 7.10892 12.0862 7.27747 11.4503 7.52476C10.7927 7.78018 10.2347 8.12185 9.67893 8.6779C9.12269 9.23374 8.78103 9.79166 8.52478 10.4492C8.27687 11.0852 8.10812 11.8121 8.06021 12.8763C8.0125 13.943 8 14.284 8 16.9999C8 19.7157 8.01208 20.0555 8.06042 21.1222C8.10937 22.1868 8.27791 22.9135 8.52499 23.5493C8.78061 24.207 9.12227 24.7649 9.6783 25.3208C10.2339 25.877 10.7918 26.2195 11.4491 26.475C12.0853 26.7223 12.8122 26.8908 13.8766 26.9396C14.9432 26.9881 15.2838 27 17.9994 27C20.7154 27 21.0552 26.9881 22.1218 26.9396C23.1864 26.8908 23.9139 26.7223 24.5501 26.475C25.2076 26.2195 25.7646 25.877 26.3203 25.3208C26.8765 24.7649 27.2182 24.207 27.4744 23.5495C27.7202 22.9135 27.889 22.1866 27.939 21.1224C27.9869 20.0557 27.9994 19.7157 27.9994 16.9999C27.9994 14.284 27.9869 13.9432 27.939 12.8765C27.889 11.8119 27.7202 11.0852 27.4744 10.4494C27.2182 9.79166 26.8765 9.23374 26.3203 8.6779C25.764 8.12164 25.2078 7.77997 24.5495 7.52476C23.912 7.27747 23.1849 7.10892 22.1203 7.06017C21.0537 7.01163 20.7141 6.99976 17.9975 6.99976H18.0006ZM17.1036 8.80186C17.3698 8.80144 17.6669 8.80186 18.0006 8.80186C20.6706 8.80186 20.987 8.81144 22.0414 8.85936C23.0164 8.90394 23.5455 9.06686 23.898 9.20374C24.3647 9.38499 24.6974 9.60166 25.0472 9.95166C25.3972 10.3017 25.6138 10.635 25.7955 11.1017C25.9324 11.4538 26.0955 11.9829 26.1398 12.9579C26.1878 14.0121 26.1982 14.3288 26.1982 16.9976C26.1982 19.6664 26.1878 19.983 26.1398 21.0372C26.0953 22.0122 25.9324 22.5414 25.7955 22.8935C25.6142 23.3601 25.3972 23.6924 25.0472 24.0422C24.6972 24.3922 24.3649 24.6089 23.898 24.7902C23.5459 24.9277 23.0164 25.0902 22.0414 25.1347C20.9872 25.1827 20.6706 25.1931 18.0006 25.1931C15.3305 25.1931 15.014 25.1827 13.9599 25.1347C12.9849 25.0897 12.4557 24.9268 12.103 24.7899C11.6364 24.6087 11.3031 24.392 10.9531 24.042C10.6031 23.692 10.3864 23.3595 10.2047 22.8926C10.0679 22.5406 9.90475 22.0114 9.86038 21.0364C9.81246 19.9822 9.80288 19.6655 9.80288 16.9951C9.80288 14.3246 9.81246 14.0096 9.86038 12.9554C9.90496 11.9804 10.0679 11.4513 10.2047 11.0988C10.386 10.6321 10.6031 10.2987 10.9531 9.94875C11.3031 9.59874 11.6364 9.38207 12.103 9.2004C12.4555 9.0629 12.9849 8.9004 13.9599 8.85561C14.8824 8.81394 15.2399 8.80144 17.1036 8.79936V8.80186ZM23.3384 10.4623C22.676 10.4623 22.1385 10.9992 22.1385 11.6619C22.1385 12.3244 22.676 12.8619 23.3384 12.8619C24.0009 12.8619 24.5384 12.3244 24.5384 11.6619C24.5384 10.9994 24.0009 10.4619 23.3384 10.4619V10.4623ZM18.0006 11.8644C15.1646 11.8644 12.8653 14.1638 12.8653 16.9999C12.8653 19.8359 15.1646 22.1343 18.0006 22.1343C20.8366 22.1343 23.1351 19.8359 23.1351 16.9999C23.1351 14.1638 20.8366 11.8644 18.0006 11.8644ZM18.0006 13.6665C19.8414 13.6665 21.3339 15.1588 21.3339 16.9999C21.3339 18.8407 19.8414 20.3332 18.0006 20.3332C16.1596 20.3332 14.6674 18.8407 14.6674 16.9999C14.6674 15.1588 16.1596 13.6665 18.0006 13.6665Z" fill="white"/>
</g>
<defs>
<clipPath id="clip0_509_1359">
<rect width="20" height="20" fill="white" transform="translate(8 7)"/>
</clipPath>
</defs>
</svg>
