<svg width="35" height="35" viewBox="0 0 35 35" fill="none" xmlns="http://www.w3.org/2000/svg">
<circle cx="17.5" cy="17.5" r="17.5" fill="#464646"/>
<g clip-path="url(#clip0_509_1355)">
<path d="M24.9643 9.94643C26.8393 11.8214 28 14.2768 28 16.9554C28 22.4018 23.4464 26.8661 17.9554 26.8661C16.3036 26.8661 14.6964 26.4196 13.2232 25.6607L8 27L9.38393 21.8661C8.53571 20.3929 8.04464 18.6964 8.04464 16.9107C8.04464 11.4643 12.5089 7 17.9554 7C20.6339 7 23.1339 8.07143 24.9643 9.94643ZM17.9554 25.1696C22.5089 25.1696 26.3036 21.4643 26.3036 16.9554C26.3036 14.7232 25.3661 12.6696 23.8036 11.1071C22.2411 9.54464 20.1875 8.69643 18 8.69643C13.4464 8.69643 9.74107 12.4018 9.74107 16.9107C9.74107 18.4732 10.1875 19.9911 10.9911 21.3304L11.2143 21.6429L10.3661 24.6786L13.4911 23.8304L13.7589 24.0089C15.0536 24.7679 16.4821 25.1696 17.9554 25.1696ZM22.5089 19.0089C22.7321 19.1429 22.9107 19.1875 22.9554 19.3214C23.0446 19.4107 23.0446 19.9018 22.8214 20.4821C22.5982 21.0625 21.6161 21.5982 21.1696 21.6429C20.3661 21.7768 19.7411 21.7321 18.1786 21.0179C15.6786 19.9464 14.0714 17.4464 13.9375 17.3125C13.8036 17.1339 12.9554 15.9732 12.9554 14.7232C12.9554 13.5179 13.5804 12.9375 13.8036 12.6696C14.0268 12.4018 14.2946 12.3571 14.4732 12.3571C14.6071 12.3571 14.7857 12.3571 14.9196 12.3571C15.0982 12.3571 15.2768 12.3125 15.5 12.8036C15.6786 13.2946 16.2143 14.5 16.2589 14.6339C16.3036 14.7679 16.3482 14.9018 16.2589 15.0804C15.8125 16.0179 15.2768 15.9732 15.5446 16.4196C16.5268 18.0714 17.4643 18.6518 18.9375 19.3661C19.1607 19.5 19.2946 19.4554 19.4732 19.3214C19.6071 19.1429 20.0982 18.5625 20.2321 18.3393C20.4107 18.0714 20.5893 18.1161 20.8125 18.2054C21.0357 18.2946 22.2411 18.875 22.5089 19.0089Z" fill="white"/>
</g>
<defs>
<clipPath id="clip0_509_1355">
<rect width="20" height="20" fill="white" transform="translate(8 7)"/>
</clipPath>
</defs>
</svg>
