<svg width="35" height="35" viewBox="0 0 35 35" fill="none" xmlns="http://www.w3.org/2000/svg">
<circle cx="17.5" cy="17.5" r="17.5" fill="#464646"/>
<path d="M18.0184 9.25C18.0183 9.25 18.0183 9.25 18.0183 10C18.0183 9.25 18.0182 9.25 18.0182 9.25L18.0179 9.25L18.0169 9.25L18.0133 9.25L17.9994 9.25001L17.9458 9.25012C17.899 9.25023 17.8304 9.25046 17.7426 9.25093C17.5671 9.25185 17.3151 9.25369 17.0078 9.25738C16.3936 9.26474 15.5574 9.27948 14.6707 9.30901C13.7853 9.33849 12.8429 9.38293 12.0186 9.45024C11.2206 9.5154 10.4644 9.60666 9.98596 9.7481C8.86663 10.0628 7.99033 11.026 7.71126 12.2002C7.47092 13.1065 7.36023 14.4626 7.3058 15.5383C7.27789 16.09 7.26396 16.5888 7.257 16.9496C7.25351 17.1302 7.25176 17.2766 7.25088 17.3783C7.25045 17.4292 7.25022 17.4689 7.25011 17.4961L7.25001 17.5274L7.25 17.5358L7.25 17.5381L7.25 17.5387L7.25 17.5389C7.25 17.539 7.25 17.5391 8 17.5391C7.25 17.5391 7.25 17.5391 7.25 17.5392L7.25 17.5394L7.25 17.5401L7.25 17.5423L7.25001 17.5506L7.25011 17.5816C7.25023 17.6086 7.25045 17.6479 7.25089 17.6983C7.25176 17.799 7.25351 17.9441 7.257 18.1231C7.26396 18.4809 7.27789 18.9761 7.30581 19.5254C7.36037 20.5988 7.4713 21.9531 7.71075 22.8758C7.99383 24.0701 8.88558 24.9843 9.99243 25.2928L9.99606 25.2938C10.4681 25.4228 11.2219 25.5066 12.0237 25.5666C12.8466 25.6282 13.7878 25.6689 14.6727 25.6959C15.5589 25.723 16.3947 25.7365 17.0086 25.7432C17.3156 25.7466 17.5676 25.7483 17.7429 25.7492C17.8306 25.7496 17.8992 25.7498 17.946 25.7499L17.9995 25.75L18.0133 25.75L18.0169 25.75H18.0179H18.0182C18.0182 25.75 18.0183 25.75 18.0183 25C18.0183 25.75 18.0183 25.75 18.0184 25.75H18.0187H18.0196L18.0232 25.75L18.037 25.75L18.0902 25.7499C18.1367 25.7498 18.2049 25.7496 18.2921 25.7492C18.4664 25.7483 18.717 25.7466 19.0223 25.7432C19.6328 25.7365 20.4641 25.723 21.3457 25.6959C22.226 25.6689 23.1628 25.6282 23.9823 25.5666C24.7809 25.5066 25.5321 25.4227 26.0039 25.2938L26.0076 25.2928C27.1144 24.9843 28.0062 24.0701 28.2892 22.8759C28.5287 21.9531 28.6396 20.5988 28.6942 19.5254C28.7221 18.9761 28.736 18.4809 28.743 18.1231C28.7465 17.9441 28.7482 17.799 28.7491 17.6983C28.7496 17.6479 28.7498 17.6086 28.7499 17.5816L28.75 17.5506L28.75 17.5423L28.75 17.5401V17.5394V17.5392C28.75 17.5391 28.75 17.5391 28 17.5391C28.75 17.5391 28.75 17.539 28.75 17.5389V17.5387V17.5381L28.75 17.5358L28.75 17.5274L28.7499 17.4961C28.7498 17.4848 28.7498 17.4713 28.7497 17.4558C28.7496 17.434 28.7494 17.4081 28.7491 17.3783C28.7482 17.2766 28.7465 17.1302 28.743 16.9496C28.736 16.5888 28.7221 16.09 28.6942 15.5383C28.6398 14.4626 28.5291 13.1066 28.2887 12.2002C28.0097 11.026 27.1334 10.0628 26.014 9.74809C25.5359 9.60673 24.7822 9.51545 23.9874 9.45026C23.1664 9.38294 22.2286 9.3385 21.3478 9.30901C20.4656 9.27948 19.6339 9.26474 19.0231 9.25738C18.7175 9.25369 18.4669 9.25185 18.2924 9.25093C18.2051 9.25046 18.1369 9.25023 18.0903 9.25012L18.0371 9.25001L18.0232 9.25L18.0196 9.25L18.0187 9.25L18.0184 9.25ZM16.7207 15.7104L19.7215 17.5391L16.7207 19.3678V15.7104Z" stroke="white" stroke-width="1.5"/>
<ellipse cx="18" cy="17.5" rx="1" ry="1.5" fill="white"/>
</svg>
