<svg width="17" height="18" viewBox="0 0 17 18" fill="none" xmlns="http://www.w3.org/2000/svg">
<path d="M8.5 0.75C12.7404 0.749999 16.25 4.40268 16.25 9C16.25 13.5973 12.7404 17.25 8.5 17.25C4.25961 17.25 0.75 13.5973 0.75 9C0.75 4.40268 4.25961 0.75 8.5 0.75Z" stroke="#DF5506" stroke-width="1.5" stroke-linecap="round" stroke-linejoin="round"/>
<path d="M8.5 17.3572L8.5 0.642889" stroke="#DF5506" stroke-width="1.3" stroke-linecap="round" stroke-linejoin="round"/>
<path d="M11.1562 16.875C11.1562 16.875 13.3577 14.2234 13.3577 9.00016C13.3577 3.77694 11.1563 1.125 11.1563 1.125" stroke="#DF5506" stroke-width="1.3" stroke-linecap="round" stroke-linejoin="round"/>
<path d="M5.84375 1.125C5.84375 1.125 3.64226 3.77663 3.64226 8.99984C3.64226 14.2231 5.84375 16.875 5.84375 16.875" stroke="#DF5506" stroke-width="1.3" stroke-linecap="round" stroke-linejoin="round"/>
<path d="M15.8418 9L1.15998 9" stroke="#DF5506" stroke-width="1.3" stroke-linecap="round" stroke-linejoin="round"/>
<path d="M1.59375 5.625C1.59375 5.625 3.71875 5.625 8.5 5.625C13.2812 5.625 15.4062 5.625 15.4062 5.625" stroke="#DF5506" stroke-width="1.3" stroke-linecap="round" stroke-linejoin="round"/>
<path d="M1.59375 12.375C1.59375 12.375 3.71875 12.375 8.5 12.375C13.2812 12.375 15.4062 12.375 15.4062 12.375" stroke="#DF5506" stroke-width="1.3" stroke-linecap="round" stroke-linejoin="round"/>
</svg>
