<svg width="186" height="53" viewBox="0 0 186 53" fill="none" xmlns="http://www.w3.org/2000/svg">
<mask id="path-1-outside-1_497_1545" maskUnits="userSpaceOnUse" x="0" y="14.5" width="35" height="22" fill="black">
<rect fill="white" y="14.5" width="35" height="22"/>
<path d="M17.4316 35.5H0.683594V34.5771H3.41797V15.915H0.683594V14.9922H11.1084V15.915H8.20312V34.5771H11.7236C12.4072 34.5771 13.0111 34.4632 13.5352 34.2354C14.4238 33.8024 15.1074 32.8226 15.5859 31.2959L16.5771 28.083H17.5684L17.4316 35.5ZM31.1801 35.8418C29.3572 35.7279 28.2064 34.6911 27.7279 32.7314C27.614 33.0505 27.4659 33.3581 27.2836 33.6543C26.3721 35.1126 24.948 35.8418 23.0111 35.8418C22.3731 35.8418 21.7921 35.762 21.268 35.6025C19.4906 35.0329 18.602 33.734 18.602 31.7061C18.6247 28.721 21.5642 27.1715 27.4203 27.0576V24.8359C27.4203 24.1751 27.3747 23.6055 27.2836 23.127C27.0557 21.8281 26.4063 21.1787 25.3354 21.1787C25.0163 21.1787 24.7315 21.2357 24.4809 21.3496C24.0935 21.5775 23.7745 22.1471 23.5238 23.0586C23.4327 23.3776 23.3643 23.6055 23.3188 23.7422C22.977 24.6992 22.3161 25.1777 21.3363 25.1777C21.1085 25.1777 20.892 25.1436 20.6869 25.0752C19.8438 24.8473 19.4223 24.2891 19.4223 23.4004C19.4223 23.013 19.5248 22.6484 19.7299 22.3066C20.5274 20.9622 22.4757 20.29 25.5746 20.29C26.3721 20.29 27.1127 20.3698 27.7963 20.5293C30.4395 21.1901 31.7611 22.9447 31.7611 25.793V32.9365C31.7611 34.0303 32.0118 34.5999 32.5131 34.6455C33.1739 34.6227 33.5727 33.8252 33.7094 32.2529L34.598 32.2871C34.5297 32.9935 34.4271 33.5745 34.2904 34.0303C33.8803 35.238 32.8435 35.8418 31.1801 35.8418ZM24.7885 34.3721C24.948 34.3721 25.1303 34.3379 25.3354 34.2695C26.2924 33.9049 26.9874 32.9251 27.4203 31.3301V28.0146C26.3949 28.0602 25.5518 28.1855 24.891 28.3906C23.6605 28.8464 23.0453 29.8262 23.0453 31.3301C23.0681 33.3125 23.6492 34.3265 24.7885 34.3721Z"/>
</mask>
<path d="M17.4316 35.5H0.683594V34.5771H3.41797V15.915H0.683594V14.9922H11.1084V15.915H8.20312V34.5771H11.7236C12.4072 34.5771 13.0111 34.4632 13.5352 34.2354C14.4238 33.8024 15.1074 32.8226 15.5859 31.2959L16.5771 28.083H17.5684L17.4316 35.5ZM31.1801 35.8418C29.3572 35.7279 28.2064 34.6911 27.7279 32.7314C27.614 33.0505 27.4659 33.3581 27.2836 33.6543C26.3721 35.1126 24.948 35.8418 23.0111 35.8418C22.3731 35.8418 21.7921 35.762 21.268 35.6025C19.4906 35.0329 18.602 33.734 18.602 31.7061C18.6247 28.721 21.5642 27.1715 27.4203 27.0576V24.8359C27.4203 24.1751 27.3747 23.6055 27.2836 23.127C27.0557 21.8281 26.4063 21.1787 25.3354 21.1787C25.0163 21.1787 24.7315 21.2357 24.4809 21.3496C24.0935 21.5775 23.7745 22.1471 23.5238 23.0586C23.4327 23.3776 23.3643 23.6055 23.3188 23.7422C22.977 24.6992 22.3161 25.1777 21.3363 25.1777C21.1085 25.1777 20.892 25.1436 20.6869 25.0752C19.8438 24.8473 19.4223 24.2891 19.4223 23.4004C19.4223 23.013 19.5248 22.6484 19.7299 22.3066C20.5274 20.9622 22.4757 20.29 25.5746 20.29C26.3721 20.29 27.1127 20.3698 27.7963 20.5293C30.4395 21.1901 31.7611 22.9447 31.7611 25.793V32.9365C31.7611 34.0303 32.0118 34.5999 32.5131 34.6455C33.1739 34.6227 33.5727 33.8252 33.7094 32.2529L34.598 32.2871C34.5297 32.9935 34.4271 33.5745 34.2904 34.0303C33.8803 35.238 32.8435 35.8418 31.1801 35.8418ZM24.7885 34.3721C24.948 34.3721 25.1303 34.3379 25.3354 34.2695C26.2924 33.9049 26.9874 32.9251 27.4203 31.3301V28.0146C26.3949 28.0602 25.5518 28.1855 24.891 28.3906C23.6605 28.8464 23.0453 29.8262 23.0453 31.3301C23.0681 33.3125 23.6492 34.3265 24.7885 34.3721Z" fill="black"/>
<path d="M17.4316 35.5V35.8H17.7262L17.7316 35.5055L17.4316 35.5ZM0.683594 35.5H0.383594V35.8H0.683594V35.5ZM0.683594 34.5771V34.2771H0.383594V34.5771H0.683594ZM3.41797 34.5771V34.8771H3.71797V34.5771H3.41797ZM3.41797 15.915H3.71797V15.615H3.41797V15.915ZM0.683594 15.915H0.383594V16.215H0.683594V15.915ZM0.683594 14.9922V14.6922H0.383594V14.9922H0.683594ZM11.1084 14.9922H11.4084V14.6922H11.1084V14.9922ZM11.1084 15.915V16.215H11.4084V15.915H11.1084ZM8.20312 15.915V15.615H7.90312V15.915H8.20312ZM8.20312 34.5771H7.90312V34.8771H8.20312V34.5771ZM13.5352 34.2354L13.6549 34.5107L13.6665 34.505L13.5352 34.2354ZM15.5859 31.2959L15.8722 31.3856L15.8726 31.3843L15.5859 31.2959ZM16.5771 28.083V27.783H16.3557L16.2905 27.9946L16.5771 28.083ZM17.5684 28.083L17.8683 28.0885L17.8739 27.783H17.5684V28.083ZM17.4316 35.2H0.683594V35.8H17.4316V35.2ZM0.983594 35.5V34.5771H0.383594V35.5H0.983594ZM0.683594 34.8771H3.41797V34.2771H0.683594V34.8771ZM3.71797 34.5771V15.915H3.11797V34.5771H3.71797ZM3.41797 15.615H0.683594V16.215H3.41797V15.615ZM0.983594 15.915V14.9922H0.383594V15.915H0.983594ZM0.683594 15.2922H11.1084V14.6922H0.683594V15.2922ZM10.8084 14.9922V15.915H11.4084V14.9922H10.8084ZM11.1084 15.615H8.20312V16.215H11.1084V15.615ZM7.90312 15.915V34.5771H8.50313V15.915H7.90312ZM8.20312 34.8771H11.7236V34.2771H8.20312V34.8771ZM11.7236 34.8771C12.4405 34.8771 13.0863 34.7576 13.6548 34.5105L13.4155 33.9602C12.9358 34.1688 12.374 34.2771 11.7236 34.2771V34.8771ZM13.6665 34.505C14.6644 34.0189 15.3838 32.944 15.8722 31.3856L15.2997 31.2062C14.8311 32.7012 14.1833 33.5859 13.4038 33.9657L13.6665 34.505ZM15.8726 31.3843L16.8638 28.1714L16.2905 27.9946L15.2993 31.2075L15.8726 31.3843ZM16.5771 28.383H17.5684V27.783H16.5771V28.383ZM17.2684 28.0775L17.1317 35.4945L17.7316 35.5055L17.8683 28.0885L17.2684 28.0775ZM31.1801 35.8418L31.1614 36.1412L31.1707 36.1418H31.1801V35.8418ZM27.7279 32.7314L28.0194 32.6603L27.782 31.6881L27.4454 32.6305L27.7279 32.7314ZM27.2836 33.6543L27.538 33.8133L27.5391 33.8115L27.2836 33.6543ZM21.268 35.6025L21.1764 35.8883L21.1806 35.8895L21.268 35.6025ZM18.602 31.7061L18.302 31.7038V31.7061H18.602ZM27.4203 27.0576L27.4261 27.3576L27.7203 27.3518V27.0576H27.4203ZM27.2836 23.127L26.9881 23.1788L26.9889 23.1831L27.2836 23.127ZM24.4809 21.3496L24.3567 21.0765L24.3424 21.083L24.3288 21.091L24.4809 21.3496ZM23.5238 23.0586L23.8123 23.141L23.8131 23.1381L23.5238 23.0586ZM23.3188 23.7422L23.6013 23.8431L23.6034 23.8371L23.3188 23.7422ZM20.6869 25.0752L20.7818 24.7906L20.7736 24.7878L20.7652 24.7856L20.6869 25.0752ZM19.7299 22.3066L19.9871 22.461L19.9879 22.4597L19.7299 22.3066ZM27.7963 20.5293L27.8691 20.2382L27.8645 20.2371L27.7963 20.5293ZM32.5131 34.6455L32.4859 34.9443L32.5046 34.946L32.5234 34.9453L32.5131 34.6455ZM33.7094 32.2529L33.7209 31.9532L33.4353 31.9422L33.4105 32.2269L33.7094 32.2529ZM34.598 32.2871L34.8967 32.316L34.9273 31.9995L34.6096 31.9873L34.598 32.2871ZM34.2904 34.0303L34.5747 34.1268L34.5778 34.1165L34.2904 34.0303ZM24.7885 34.3721L24.7765 34.6721H24.7885V34.3721ZM25.3354 34.2695L25.4303 34.5544L25.4422 34.5499L25.3354 34.2695ZM27.4203 31.3301L27.7098 31.4087L27.7203 31.3701V31.3301H27.4203ZM27.4203 28.0146H27.7203V27.701L27.407 27.7149L27.4203 28.0146ZM24.891 28.3906L24.8021 28.1041L24.7944 28.1065L24.7868 28.1093L24.891 28.3906ZM23.0453 31.3301H22.7453L22.7453 31.3335L23.0453 31.3301ZM31.1988 35.5424C30.3423 35.4889 29.6671 35.2211 29.1507 34.7559C28.6318 34.2884 28.2486 33.5991 28.0194 32.6603L27.4365 32.8026C27.6858 33.8234 28.1172 34.6323 28.749 35.2016C29.3834 35.7732 30.1949 36.0808 31.1614 36.1412L31.1988 35.5424ZM27.4454 32.6305C27.3387 32.9294 27.1997 33.2182 27.0281 33.4971L27.5391 33.8115C27.732 33.498 27.8893 33.1715 28.0105 32.8323L27.4454 32.6305ZM27.0292 33.4953C26.1803 34.8535 24.86 35.5418 23.0111 35.5418V36.1418C25.0359 36.1418 26.564 35.3717 27.538 33.8133L27.0292 33.4953ZM23.0111 35.5418C22.398 35.5418 21.8469 35.4651 21.3553 35.3155L21.1806 35.8895C21.7372 36.0589 22.3483 36.1418 23.0111 36.1418V35.5418ZM21.3595 35.3169C20.5221 35.0484 19.9161 34.6164 19.5161 34.0318C19.1145 33.4449 18.902 32.6769 18.902 31.7061H18.302C18.302 32.7632 18.5338 33.6586 19.0209 34.3706C19.5095 35.0848 20.2365 35.587 21.1764 35.8882L21.3595 35.3169ZM18.9019 31.7083C18.9072 31.0135 19.0814 30.4143 19.4171 29.9005C19.7538 29.3851 20.2636 28.9395 20.9635 28.5706C22.3714 27.8284 24.5143 27.4142 27.4261 27.3576L27.4145 26.7577C24.4702 26.815 22.2153 27.2324 20.6837 28.0398C19.9139 28.4456 19.3186 28.9542 18.9148 29.5724C18.5099 30.1922 18.3081 30.9061 18.302 31.7038L18.9019 31.7083ZM27.7203 27.0576V24.8359H27.1203V27.0576H27.7203ZM27.7203 24.8359C27.7203 24.1625 27.674 23.573 27.5783 23.0708L26.9889 23.1831C27.0755 23.6379 27.1203 24.1878 27.1203 24.8359H27.7203ZM27.5791 23.0751C27.459 22.3904 27.2213 21.8372 26.8378 21.4536C26.4475 21.0633 25.9361 20.8787 25.3354 20.8787V21.4787C25.8055 21.4787 26.1544 21.6188 26.4135 21.8779C26.6794 22.1438 26.8804 22.5647 26.9881 23.1788L27.5791 23.0751ZM25.3354 20.8787C24.9803 20.8787 24.6521 20.9422 24.3567 21.0765L24.605 21.6227C24.811 21.5291 25.0524 21.4787 25.3354 21.4787V20.8787ZM24.3288 21.091C24.0731 21.2414 23.8638 21.4897 23.6893 21.8012C23.514 22.1143 23.3637 22.5094 23.2346 22.979L23.8131 23.1381C23.9346 22.6963 24.0691 22.3509 24.2128 22.0943C24.3574 21.8362 24.5013 21.6856 24.633 21.6082L24.3288 21.091ZM23.2354 22.9762C23.1443 23.295 23.0775 23.5173 23.0341 23.6473L23.6034 23.8371C23.6512 23.6936 23.7211 23.4603 23.8123 23.141L23.2354 22.9762ZM23.0362 23.6413C22.8807 24.0769 22.6613 24.38 22.3908 24.5759C22.1212 24.7711 21.776 24.8777 21.3363 24.8777V25.4777C21.8764 25.4777 22.3516 25.3451 22.7428 25.0618C23.1331 24.7792 23.415 24.3645 23.6013 23.8431L23.0362 23.6413ZM21.3363 24.8777C21.139 24.8777 20.9546 24.8482 20.7818 24.7906L20.592 25.3598C20.8293 25.4389 21.078 25.4777 21.3363 25.4777V24.8777ZM20.7652 24.7856C20.3917 24.6846 20.1394 24.5187 19.9778 24.3048C19.8159 24.0904 19.7223 23.7973 19.7223 23.4004H19.1223C19.1223 23.8921 19.2394 24.3225 19.499 24.6664C19.759 25.0107 20.1391 25.2379 20.6086 25.3648L20.7652 24.7856ZM19.7223 23.4004C19.7223 23.069 19.8092 22.7576 19.9871 22.461L19.4726 22.1523C19.2404 22.5393 19.1223 22.957 19.1223 23.4004H19.7223ZM19.9879 22.4597C20.3402 21.8658 20.9584 21.3982 21.8871 21.0778C22.8181 20.7566 24.0434 20.59 25.5746 20.59V19.99C24.0069 19.99 22.7086 20.1596 21.6914 20.5106C20.6717 20.8624 19.9171 21.4031 19.4719 22.1536L19.9879 22.4597ZM25.5746 20.59C26.3522 20.59 27.0697 20.6678 27.7281 20.8214L27.8645 20.2371C27.1557 20.0718 26.392 19.99 25.5746 19.99V20.59ZM27.7235 20.8203C28.995 21.1382 29.92 21.7111 30.5303 22.5213C31.1417 23.333 31.4611 24.4146 31.4611 25.793H32.0611C32.0611 24.3231 31.7198 23.1032 31.0095 22.1603C30.2982 21.216 29.2408 20.5812 27.8691 20.2383L27.7235 20.8203ZM31.4611 25.793V32.9365H32.0611V25.793H31.4611ZM31.4611 32.9365C31.4611 33.4982 31.5243 33.9634 31.6745 34.3049C31.8316 34.6618 32.0993 34.9091 32.4859 34.9443L32.5402 34.3467C32.4256 34.3363 32.3173 34.276 32.2237 34.0633C32.1233 33.8351 32.0611 33.4686 32.0611 32.9365H31.4611ZM32.5234 34.9453C33.0015 34.9288 33.3472 34.6222 33.5761 34.1644C33.8007 33.7153 33.9387 33.0783 34.0082 32.2789L33.4105 32.2269C33.3433 32.9999 33.2136 33.5478 33.0394 33.8961C32.8696 34.2358 32.6855 34.3394 32.5027 34.3457L32.5234 34.9453ZM33.6978 32.5527L34.5865 32.5869L34.6096 31.9873L33.7209 31.9532L33.6978 32.5527ZM34.2994 32.2582C34.2321 32.9536 34.1322 33.5137 34.0031 33.9441L34.5778 34.1165C34.7221 33.6354 34.8272 33.0333 34.8967 32.316L34.2994 32.2582ZM34.0064 33.9338C33.823 34.4738 33.5059 34.8666 33.0542 35.1297C32.5961 35.3965 31.9783 35.5418 31.1801 35.5418V36.1418C32.0453 36.1418 32.7776 35.9851 33.3562 35.6482C33.9413 35.3074 34.3477 34.7944 34.5745 34.1267L34.0064 33.9338ZM24.7885 34.6721C24.9894 34.6721 25.2047 34.6293 25.4302 34.5541L25.2405 33.9849C25.0559 34.0465 24.9066 34.0721 24.7885 34.0721V34.6721ZM25.4422 34.5499C26.5328 34.1344 27.2673 33.0389 27.7098 31.4087L27.1308 31.2515C26.7074 32.8114 26.0519 33.6755 25.2286 33.9892L25.4422 34.5499ZM27.7203 31.3301V28.0146H27.1203V31.3301H27.7203ZM27.407 27.7149C26.367 27.7612 25.4962 27.8887 24.8021 28.1041L24.9799 28.6771C25.6075 28.4824 26.4228 28.3593 27.4336 28.3144L27.407 27.7149ZM24.7868 28.1093C24.1183 28.3569 23.6001 28.7544 23.2527 29.3078C22.9073 29.8578 22.7453 30.5383 22.7453 31.3301H23.3453C23.3453 30.6179 23.491 30.0566 23.7608 29.6268C24.0286 29.2003 24.4333 28.8801 24.9952 28.6719L24.7868 28.1093ZM22.7453 31.3335C22.757 32.3446 22.9099 33.1542 23.2379 33.7265C23.5782 34.3204 24.1006 34.6448 24.7765 34.6718L24.8005 34.0723C24.3371 34.0538 23.9992 33.8484 23.7585 33.4282C23.5054 32.9866 23.3565 32.298 23.3453 31.3266L22.7453 31.3335Z" fill="black" mask="url(#path-1-outside-1_497_1545)"/>
<path fill-rule="evenodd" clip-rule="evenodd" d="M49.9208 37.6743C51.0581 38.0075 52.2512 38.1741 53.5 38.1741C54.7042 38.1741 55.875 38.0179 57.0123 37.7055C58.1496 37.3932 59.1532 36.8934 60.0229 36.2062C60.9149 35.519 61.6285 34.6236 62.1637 33.5199C62.7212 32.4162 63 31.0835 63 29.5216C63 28.064 62.7324 26.8041 62.1972 25.7421C61.6843 24.68 60.9818 23.795 60.0898 23.087C59.2201 22.3789 58.2054 21.8583 57.0458 21.5252C55.9085 21.1711 54.7265 20.9941 53.5 20.9941C52.3181 20.9941 51.1585 21.1503 50.0211 21.4627C48.9061 21.775 47.8914 22.2748 46.9771 22.962C46.0851 23.6492 45.3603 24.5447 44.8028 25.6483C44.2676 26.752 44 28.0848 44 29.6466C44 31.1043 44.2565 32.3746 44.7694 33.4574C45.3046 34.5194 46.007 35.4045 46.8768 36.1125C47.7688 36.7997 48.7835 37.3203 49.9208 37.6743ZM54.3594 35.341C54.0921 35.425 53.8077 35.467 53.5063 35.467C53.0984 35.467 52.7535 35.4082 52.4716 35.2906C52.1899 35.1562 51.9548 34.8789 51.7662 34.4589C51.5956 34.0221 51.4723 33.392 51.3963 32.5688C51.3204 31.7456 51.293 30.6451 51.3142 29.2674C51.3316 28.1417 51.39 27.2261 51.4895 26.5204C51.6068 25.8148 51.7571 25.2688 51.9404 24.8823C52.1414 24.4959 52.3759 24.2355 52.644 24.1011C52.9123 23.9499 53.215 23.8743 53.5519 23.8743C53.9066 23.8743 54.2249 23.9331 54.5068 24.0507C54.789 24.1515 55.0245 24.4035 55.2133 24.8067C55.4199 25.21 55.5703 25.8064 55.6645 26.596C55.7588 27.3857 55.7954 28.461 55.7744 29.8218C55.7542 31.1323 55.6763 32.1656 55.5405 32.9216C55.4224 33.6777 55.2629 34.2489 55.0619 34.6353C54.8611 35.0049 54.627 35.2402 54.3594 35.341Z" fill="#FF5C00"/>
<path d="M45.0859 19.3874C44.5765 20.6359 44.0102 28.2076 44 29.5576C44.3082 23.187 49.4383 18.1069 55.8117 17.861L60.2314 17.6905L61.8155 13.2292C59.8364 12.9099 58.6335 12.9253 56.428 12.9103C54.3695 12.8963 52.5881 13.1788 51.0839 13.7577C49.5798 14.3121 48.3241 15.0768 47.3169 16.0518C46.3098 17.0023 45.5661 18.1142 45.0859 19.3874Z" fill="#FF5C00"/>
<mask id="path-5-outside-2_497_1545" maskUnits="userSpaceOnUse" x="74" y="12.5" width="112" height="24" fill="black">
<rect fill="white" x="74" y="12.5" width="112" height="24"/>
<path d="M74.6836 14.9922H84.7666C87.2959 14.9922 89.5062 15.596 91.3975 16.8037C94.2686 18.6722 95.7041 21.5091 95.7041 25.3145C95.7041 28.2995 94.7015 30.7376 92.6963 32.6289C90.6455 34.543 88.0365 35.5 84.8691 35.5H74.6836V34.5771H77.418V15.915H74.6836V14.9922ZM84.8691 15.915H82.2031V34.5771H84.8008C85.8717 34.5771 86.7718 34.3607 87.501 33.9277C89.3923 32.8112 90.3379 29.8831 90.3379 25.1436C90.3379 22.7738 90.11 20.8711 89.6543 19.4355C88.8568 17.0885 87.2617 15.915 84.8691 15.915ZM105.932 21.1787C104.109 21.2471 103.118 23.1725 102.958 26.9551L105.146 27.0576C106.057 27.1032 106.741 27.0462 107.197 26.8867C107.835 26.6361 108.154 25.9753 108.154 24.9043C108.131 22.4661 107.39 21.2243 105.932 21.1787ZM112.324 31.9795C112.187 32.3441 112.005 32.6973 111.777 33.0391C110.615 34.9076 108.701 35.8418 106.035 35.8418C104.531 35.8418 103.186 35.5342 102.001 34.9189C99.5176 33.6201 98.2758 31.3187 98.2758 28.0146C98.2758 25.9867 98.8227 24.2891 99.9164 22.9219C101.352 21.1673 103.357 20.29 105.932 20.29C107.345 20.29 108.609 20.5293 109.726 21.0078C111.708 21.8965 112.7 23.3092 112.7 25.2461C112.7 25.6335 112.631 25.9867 112.495 26.3057C111.902 27.5817 109.772 28.1628 106.103 28.0488L102.958 27.9463C102.981 29.2679 103.095 30.4072 103.3 31.3643C103.824 33.6885 104.998 34.8506 106.821 34.8506C107.39 34.8506 107.949 34.748 108.496 34.543C109.863 34.0417 110.865 33.096 111.503 31.7061L112.324 31.9795ZM123.098 34.6113C123.235 34.6113 123.36 34.6227 123.474 34.6455C123.771 34.6911 123.919 34.9759 123.919 35.5H114.383V34.6113C115.021 34.6113 115.533 34.5658 115.921 34.4746C116.673 34.2695 117.049 33.6999 117.049 32.7656V14.1719H114.383V13.2832H121.389V34.6113H123.098ZM149.57 29.792C149.57 31.2959 149.034 32.5719 147.963 33.6201C146.414 35.1012 144.192 35.8418 141.298 35.8418C138.815 35.8418 136.696 35.2607 134.941 34.0986C134.941 34.486 134.918 34.7936 134.873 35.0215C134.759 35.3861 134.394 35.5684 133.779 35.5684V28.3223H135.112C135.203 29.5299 135.454 30.6009 135.864 31.5352C136.844 33.7454 138.541 34.8506 140.957 34.8506C141.595 34.8506 142.176 34.7594 142.7 34.5771C144.158 34.0303 144.887 32.9365 144.887 31.2959C144.887 30.8174 144.785 30.3503 144.58 29.8945C144.101 28.9375 142.882 27.9463 140.922 26.9209C138.735 25.8044 137.504 25.1549 137.231 24.9727C135.066 23.6283 133.984 22.0104 133.984 20.1191C133.984 18.8431 134.428 17.738 135.317 16.8037C136.707 15.3682 138.781 14.6504 141.538 14.6504C143.634 14.6504 145.628 15.0947 147.519 15.9834C147.519 15.7783 147.531 15.596 147.553 15.4365C147.667 15.0036 148.043 14.7871 148.681 14.7871V20.9736H147.348C147.325 19.7432 147.029 18.6836 146.46 17.7949C145.525 16.3822 144.124 15.6758 142.255 15.6758C141.777 15.6758 141.321 15.7441 140.888 15.8809C139.589 16.3138 138.94 17.2025 138.94 18.5469C138.94 19.071 139.054 19.5723 139.282 20.0508C139.76 21.0306 140.957 22.0218 142.871 23.0244C144.967 24.141 146.163 24.779 146.46 24.9385C148.533 26.2829 149.57 27.9007 149.57 29.792ZM169.026 34.6113C169.186 34.6113 169.323 34.6227 169.437 34.6455C169.71 34.7139 169.847 34.9987 169.847 35.5H163.763L163.592 32.6973C163.523 32.834 163.455 32.9707 163.387 33.1074C162.316 34.9303 160.755 35.8418 158.704 35.8418C155.491 35.819 153.862 33.9619 153.816 30.2705V21.6914H151.834V20.8027H158.157V30.8516C158.157 31.1706 158.18 31.4782 158.226 31.7744C158.453 33.3011 159.217 34.0645 160.516 34.0645C160.857 34.0645 161.199 33.9847 161.541 33.8252C162.68 33.2555 163.33 32.082 163.489 30.3047L163.523 21.6914H161.849V20.8027H167.864V34.6113H169.026ZM180.416 34.6113C180.553 34.6113 180.678 34.6227 180.792 34.6455C181.089 34.6911 181.237 34.9759 181.237 35.5H171.564V34.6113C171.86 34.6113 172.122 34.5885 172.35 34.543C173.148 34.4062 173.546 33.8366 173.546 32.834V21.6914H171.564V20.8027H177.545L177.785 23.9814C178.035 23.3434 178.4 22.751 178.878 22.2041C179.949 21.0876 181.191 20.5293 182.604 20.5293C182.9 20.5293 183.185 20.5635 183.458 20.6318C184.575 20.9281 185.133 21.6458 185.133 22.7852C185.133 23.1042 185.065 23.4118 184.928 23.708C184.541 24.5739 183.891 25.0068 182.98 25.0068C182.706 25.0068 182.456 24.9727 182.228 24.9043C181.749 24.722 181.305 24.2663 180.895 23.5371C180.599 23.013 180.325 22.751 180.075 22.751C179.938 22.751 179.79 22.7852 179.63 22.8535C178.628 23.3776 178.047 24.8359 177.887 27.2285V34.6113H180.416Z"/>
</mask>
<path d="M74.6836 14.9922H84.7666C87.2959 14.9922 89.5062 15.596 91.3975 16.8037C94.2686 18.6722 95.7041 21.5091 95.7041 25.3145C95.7041 28.2995 94.7015 30.7376 92.6963 32.6289C90.6455 34.543 88.0365 35.5 84.8691 35.5H74.6836V34.5771H77.418V15.915H74.6836V14.9922ZM84.8691 15.915H82.2031V34.5771H84.8008C85.8717 34.5771 86.7718 34.3607 87.501 33.9277C89.3923 32.8112 90.3379 29.8831 90.3379 25.1436C90.3379 22.7738 90.11 20.8711 89.6543 19.4355C88.8568 17.0885 87.2617 15.915 84.8691 15.915ZM105.932 21.1787C104.109 21.2471 103.118 23.1725 102.958 26.9551L105.146 27.0576C106.057 27.1032 106.741 27.0462 107.197 26.8867C107.835 26.6361 108.154 25.9753 108.154 24.9043C108.131 22.4661 107.39 21.2243 105.932 21.1787ZM112.324 31.9795C112.187 32.3441 112.005 32.6973 111.777 33.0391C110.615 34.9076 108.701 35.8418 106.035 35.8418C104.531 35.8418 103.186 35.5342 102.001 34.9189C99.5176 33.6201 98.2758 31.3187 98.2758 28.0146C98.2758 25.9867 98.8227 24.2891 99.9164 22.9219C101.352 21.1673 103.357 20.29 105.932 20.29C107.345 20.29 108.609 20.5293 109.726 21.0078C111.708 21.8965 112.7 23.3092 112.7 25.2461C112.7 25.6335 112.631 25.9867 112.495 26.3057C111.902 27.5817 109.772 28.1628 106.103 28.0488L102.958 27.9463C102.981 29.2679 103.095 30.4072 103.3 31.3643C103.824 33.6885 104.998 34.8506 106.821 34.8506C107.39 34.8506 107.949 34.748 108.496 34.543C109.863 34.0417 110.865 33.096 111.503 31.7061L112.324 31.9795ZM123.098 34.6113C123.235 34.6113 123.36 34.6227 123.474 34.6455C123.771 34.6911 123.919 34.9759 123.919 35.5H114.383V34.6113C115.021 34.6113 115.533 34.5658 115.921 34.4746C116.673 34.2695 117.049 33.6999 117.049 32.7656V14.1719H114.383V13.2832H121.389V34.6113H123.098ZM149.57 29.792C149.57 31.2959 149.034 32.5719 147.963 33.6201C146.414 35.1012 144.192 35.8418 141.298 35.8418C138.815 35.8418 136.696 35.2607 134.941 34.0986C134.941 34.486 134.918 34.7936 134.873 35.0215C134.759 35.3861 134.394 35.5684 133.779 35.5684V28.3223H135.112C135.203 29.5299 135.454 30.6009 135.864 31.5352C136.844 33.7454 138.541 34.8506 140.957 34.8506C141.595 34.8506 142.176 34.7594 142.7 34.5771C144.158 34.0303 144.887 32.9365 144.887 31.2959C144.887 30.8174 144.785 30.3503 144.58 29.8945C144.101 28.9375 142.882 27.9463 140.922 26.9209C138.735 25.8044 137.504 25.1549 137.231 24.9727C135.066 23.6283 133.984 22.0104 133.984 20.1191C133.984 18.8431 134.428 17.738 135.317 16.8037C136.707 15.3682 138.781 14.6504 141.538 14.6504C143.634 14.6504 145.628 15.0947 147.519 15.9834C147.519 15.7783 147.531 15.596 147.553 15.4365C147.667 15.0036 148.043 14.7871 148.681 14.7871V20.9736H147.348C147.325 19.7432 147.029 18.6836 146.46 17.7949C145.525 16.3822 144.124 15.6758 142.255 15.6758C141.777 15.6758 141.321 15.7441 140.888 15.8809C139.589 16.3138 138.94 17.2025 138.94 18.5469C138.94 19.071 139.054 19.5723 139.282 20.0508C139.76 21.0306 140.957 22.0218 142.871 23.0244C144.967 24.141 146.163 24.779 146.46 24.9385C148.533 26.2829 149.57 27.9007 149.57 29.792ZM169.026 34.6113C169.186 34.6113 169.323 34.6227 169.437 34.6455C169.71 34.7139 169.847 34.9987 169.847 35.5H163.763L163.592 32.6973C163.523 32.834 163.455 32.9707 163.387 33.1074C162.316 34.9303 160.755 35.8418 158.704 35.8418C155.491 35.819 153.862 33.9619 153.816 30.2705V21.6914H151.834V20.8027H158.157V30.8516C158.157 31.1706 158.18 31.4782 158.226 31.7744C158.453 33.3011 159.217 34.0645 160.516 34.0645C160.857 34.0645 161.199 33.9847 161.541 33.8252C162.68 33.2555 163.33 32.082 163.489 30.3047L163.523 21.6914H161.849V20.8027H167.864V34.6113H169.026ZM180.416 34.6113C180.553 34.6113 180.678 34.6227 180.792 34.6455C181.089 34.6911 181.237 34.9759 181.237 35.5H171.564V34.6113C171.86 34.6113 172.122 34.5885 172.35 34.543C173.148 34.4062 173.546 33.8366 173.546 32.834V21.6914H171.564V20.8027H177.545L177.785 23.9814C178.035 23.3434 178.4 22.751 178.878 22.2041C179.949 21.0876 181.191 20.5293 182.604 20.5293C182.9 20.5293 183.185 20.5635 183.458 20.6318C184.575 20.9281 185.133 21.6458 185.133 22.7852C185.133 23.1042 185.065 23.4118 184.928 23.708C184.541 24.5739 183.891 25.0068 182.98 25.0068C182.706 25.0068 182.456 24.9727 182.228 24.9043C181.749 24.722 181.305 24.2663 180.895 23.5371C180.599 23.013 180.325 22.751 180.075 22.751C179.938 22.751 179.79 22.7852 179.63 22.8535C178.628 23.3776 178.047 24.8359 177.887 27.2285V34.6113H180.416Z" fill="black"/>
<path d="M74.6836 14.9922V14.6922H74.3836V14.9922H74.6836ZM91.3975 16.8037L91.5611 16.5523L91.5589 16.5509L91.3975 16.8037ZM92.6963 32.6289L92.901 32.8482L92.9021 32.8471L92.6963 32.6289ZM74.6836 35.5H74.3836V35.8H74.6836V35.5ZM74.6836 34.5771V34.2771H74.3836V34.5771H74.6836ZM77.418 34.5771V34.8771H77.718V34.5771H77.418ZM77.418 15.915H77.718V15.615H77.418V15.915ZM74.6836 15.915H74.3836V16.215H74.6836V15.915ZM82.2031 15.915V15.615H81.9031V15.915H82.2031ZM82.2031 34.5771H81.9031V34.8771H82.2031V34.5771ZM87.501 33.9277L87.3485 33.6694L87.3478 33.6698L87.501 33.9277ZM89.6543 19.4355L89.9403 19.3448L89.9383 19.339L89.6543 19.4355ZM74.6836 15.2922H84.7666V14.6922H74.6836V15.2922ZM84.7666 15.2922C87.2462 15.2922 89.3989 15.8835 91.236 17.0566L91.5589 16.5509C89.6135 15.3086 87.3456 14.6922 84.7666 14.6922V15.2922ZM91.2338 17.0552C94.0093 18.8614 95.4041 21.5973 95.4041 25.3145H96.0041C96.0041 21.4209 94.5278 18.483 91.5611 16.5523L91.2338 17.0552ZM95.4041 25.3145C95.4041 28.2245 94.4302 30.5811 92.4904 32.4107L92.9021 32.8471C94.9728 30.8942 96.0041 28.3745 96.0041 25.3145H95.4041ZM92.4916 32.4096C90.5036 34.265 87.9711 35.2 84.8691 35.2V35.8C88.1019 35.8 90.7874 34.8209 92.901 32.8482L92.4916 32.4096ZM84.8691 35.2H74.6836V35.8H84.8691V35.2ZM74.9836 35.5V34.5771H74.3836V35.5H74.9836ZM74.6836 34.8771H77.418V34.2771H74.6836V34.8771ZM77.718 34.5771V15.915H77.118V34.5771H77.718ZM77.418 15.615H74.6836V16.215H77.418V15.615ZM74.9836 15.915V14.9922H74.3836V15.915H74.9836ZM84.8691 15.615H82.2031V16.215H84.8691V15.615ZM81.9031 15.915V34.5771H82.5031V15.915H81.9031ZM82.2031 34.8771H84.8008V34.2771H82.2031V34.8771ZM84.8008 34.8771C85.9117 34.8771 86.8679 34.6525 87.6541 34.1857L87.3478 33.6698C86.6757 34.0688 85.8318 34.2771 84.8008 34.2771V34.8771ZM87.6535 34.1861C88.6836 33.5779 89.4278 32.4924 89.9141 30.9865C90.4003 29.4811 90.6379 27.5297 90.6379 25.1436H90.0379C90.0379 27.497 89.8027 29.3794 89.3432 30.8021C88.8839 32.2242 88.2096 33.161 87.3485 33.6694L87.6535 34.1861ZM90.6379 25.1436C90.6379 22.7585 90.409 20.8215 89.9402 19.3448L89.3684 19.5263C89.811 20.9207 90.0379 22.789 90.0379 25.1436H90.6379ZM89.9383 19.339C89.5248 18.1221 88.8958 17.1849 88.0376 16.5535C87.1786 15.9215 86.1158 15.615 84.8691 15.615V16.215C86.0151 16.215 86.9461 16.4953 87.6821 17.0368C88.419 17.579 88.9862 18.402 89.3702 19.5321L89.9383 19.339ZM105.932 21.1787L105.941 20.8789L105.931 20.8785L105.921 20.8789L105.932 21.1787ZM102.958 26.9551L102.659 26.9424L102.646 27.2408L102.944 27.2547L102.958 26.9551ZM105.146 27.0576L105.161 26.758L105.16 26.7579L105.146 27.0576ZM107.197 26.8867L107.296 27.1701L107.306 27.1659L107.197 26.8867ZM108.154 24.9043H108.454L108.454 24.9015L108.154 24.9043ZM112.324 31.9795L112.605 32.0848L112.714 31.7933L112.419 31.6949L112.324 31.9795ZM111.777 33.0391L111.527 32.8726L111.522 32.8806L111.777 33.0391ZM102.001 34.9189L101.862 35.1848L101.863 35.1852L102.001 34.9189ZM99.9164 22.9219L99.6842 22.7319L99.6821 22.7345L99.9164 22.9219ZM109.726 21.0078L109.849 20.734L109.844 20.7321L109.726 21.0078ZM112.495 26.3057L112.767 26.4321L112.77 26.4238L112.495 26.3057ZM106.103 28.0488L106.093 28.3487L106.094 28.3487L106.103 28.0488ZM102.958 27.9463L102.968 27.6464L102.653 27.6362L102.658 27.9515L102.958 27.9463ZM103.3 31.3643L103.007 31.4271L103.008 31.4302L103.3 31.3643ZM108.496 34.543L108.392 34.2613L108.39 34.2621L108.496 34.543ZM111.503 31.7061L111.598 31.4214L111.343 31.3364L111.231 31.5809L111.503 31.7061ZM105.921 20.8789C104.879 20.918 104.089 21.4992 103.555 22.5368C103.03 23.557 102.739 25.0355 102.659 26.9424L103.258 26.9677C103.337 25.0921 103.622 23.7166 104.088 22.8114C104.545 21.9235 105.162 21.5078 105.943 21.4785L105.921 20.8789ZM102.944 27.2547L105.132 27.3573L105.16 26.7579L102.972 26.6554L102.944 27.2547ZM105.131 27.3572C106.053 27.4033 106.784 27.3491 107.296 27.1699L107.098 26.6036C106.698 26.7434 106.062 26.803 105.161 26.758L105.131 27.3572ZM107.306 27.1659C108.119 26.8469 108.454 26.0192 108.454 24.9043H107.854C107.854 25.9313 107.551 26.4253 107.087 26.6075L107.306 27.1659ZM108.454 24.9015C108.442 23.6615 108.249 22.6786 107.839 21.9906C107.416 21.2808 106.772 20.9048 105.941 20.8789L105.923 21.4786C106.551 21.4982 107.006 21.7659 107.324 22.2979C107.654 22.8518 107.843 23.709 107.854 24.9071L108.454 24.9015ZM112.043 31.8742C111.915 32.2161 111.743 32.5489 111.527 32.8727L112.026 33.2055C112.266 32.8456 112.459 32.472 112.605 32.0848L112.043 31.8742ZM111.522 32.8806C110.427 34.6414 108.622 35.5418 106.035 35.5418V36.1418C108.779 36.1418 110.802 35.1737 112.032 33.1975L111.522 32.8806ZM106.035 35.5418C104.573 35.5418 103.277 35.2431 102.14 34.6527L101.863 35.1852C103.096 35.8253 104.489 36.1418 106.035 36.1418V35.5418ZM102.14 34.6531C99.7753 33.4163 98.5758 31.2312 98.5758 28.0146H97.9758C97.9758 31.4062 99.2599 33.8239 101.862 35.1848L102.14 34.6531ZM98.5758 28.0146C98.5758 26.0435 99.106 24.4151 100.151 23.1093L99.6821 22.7345C98.5393 24.163 97.9758 25.9298 97.9758 28.0146H98.5758ZM100.149 23.1118C101.519 21.4369 103.433 20.59 105.932 20.59V19.99C103.281 19.99 101.185 20.8977 99.6842 22.7319L100.149 23.1118ZM105.932 20.59C107.311 20.59 108.534 20.8234 109.608 21.2836L109.844 20.7321C108.685 20.2352 107.379 19.99 105.932 19.99V20.59ZM109.603 21.2816C110.558 21.7094 111.253 22.2542 111.711 22.9062C112.167 23.556 112.4 24.3315 112.4 25.2461H113C113 24.2239 112.737 23.3245 112.202 22.5616C111.668 21.8008 110.877 21.1949 109.849 20.7341L109.603 21.2816ZM112.4 25.2461C112.4 25.5976 112.338 25.9099 112.219 26.1875L112.77 26.4238C112.925 26.0634 113 25.6694 113 25.2461H112.4ZM112.222 26.1793C111.98 26.7007 111.402 27.1286 110.373 27.4091C109.35 27.6883 107.934 27.8055 106.112 27.749L106.094 28.3487C107.941 28.406 109.425 28.2897 110.531 27.9879C111.633 27.6873 112.416 27.1866 112.767 26.432L112.222 26.1793ZM106.113 27.749L102.968 27.6464L102.949 28.2461L106.093 28.3487L106.113 27.749ZM102.658 27.9515C102.681 29.2862 102.797 30.4458 103.007 31.4271L103.594 31.3014C103.394 30.3686 103.281 29.2496 103.258 27.9411L102.658 27.9515ZM103.008 31.4302C103.277 32.6248 103.721 33.5567 104.362 34.1922C105.011 34.8349 105.839 35.1506 106.821 35.1506V34.5506C105.979 34.5506 105.309 34.2852 104.784 33.7658C104.253 33.2392 103.848 32.428 103.593 31.2983L103.008 31.4302ZM106.821 35.1506C107.427 35.1506 108.021 35.0413 108.601 34.8239L108.39 34.2621C107.876 34.4548 107.353 34.5506 106.821 34.5506V35.1506ZM108.599 34.8246C110.045 34.2943 111.106 33.2898 111.776 31.8312L111.231 31.5809C110.624 32.9023 109.68 33.789 108.392 34.2613L108.599 34.8246ZM111.408 31.9907L112.229 32.2641L112.419 31.6949L111.598 31.4214L111.408 31.9907ZM123.474 34.6455L123.416 34.94L123.429 34.942L123.474 34.6455ZM123.919 35.5V35.8H124.219V35.5H123.919ZM114.383 35.5H114.083V35.8H114.383V35.5ZM114.383 34.6113V34.3113H114.083V34.6113H114.383ZM115.921 34.4746L115.989 34.7668L116 34.764L115.921 34.4746ZM117.049 14.1719H117.349V13.8719H117.049V14.1719ZM114.383 14.1719H114.083V14.4719H114.383V14.1719ZM114.383 13.2832V12.9832H114.083V13.2832H114.383ZM121.389 13.2832H121.689V12.9832H121.389V13.2832ZM121.389 34.6113H121.089V34.9113H121.389V34.6113ZM123.098 34.9113C123.219 34.9113 123.324 34.9214 123.416 34.9397L123.533 34.3513C123.397 34.3241 123.252 34.3113 123.098 34.3113V34.9113ZM123.429 34.942C123.475 34.9491 123.508 34.9671 123.542 35.0317C123.584 35.1125 123.619 35.2591 123.619 35.5H124.219C124.219 35.2168 124.18 34.9589 124.074 34.7549C123.959 34.5347 123.77 34.3875 123.52 34.349L123.429 34.942ZM123.919 35.2H114.383V35.8H123.919V35.2ZM114.683 35.5V34.6113H114.083V35.5H114.683ZM114.383 34.9113C115.032 34.9113 115.57 34.8653 115.989 34.7666L115.852 34.1826C115.496 34.2662 115.01 34.3113 114.383 34.3113V34.9113ZM116 34.764C116.435 34.6452 116.783 34.4131 117.017 34.0588C117.247 33.7099 117.349 33.2705 117.349 32.7656H116.749C116.749 33.195 116.662 33.5075 116.516 33.7283C116.374 33.9437 116.158 34.0989 115.842 34.1852L116 34.764ZM117.349 32.7656V14.1719H116.749V32.7656H117.349ZM117.049 13.8719H114.383V14.4719H117.049V13.8719ZM114.683 14.1719V13.2832H114.083V14.1719H114.683ZM114.383 13.5832H121.389V12.9832H114.383V13.5832ZM121.089 13.2832V34.6113H121.689V13.2832H121.089ZM121.389 34.9113H123.098V34.3113H121.389V34.9113ZM147.963 33.6201L148.171 33.837L148.173 33.8345L147.963 33.6201ZM134.941 34.0986L135.107 33.8485L134.641 33.5401V34.0986H134.941ZM134.873 35.0215L135.159 35.111L135.164 35.0958L135.167 35.0803L134.873 35.0215ZM133.779 35.5684H133.479V35.8684H133.779V35.5684ZM133.779 28.3223V28.0223H133.479V28.3223H133.779ZM135.112 28.3223L135.411 28.2997L135.39 28.0223H135.112V28.3223ZM135.864 31.5352L135.589 31.6558L135.59 31.6567L135.864 31.5352ZM142.7 34.5771L142.798 34.8606L142.805 34.858L142.7 34.5771ZM144.58 29.8945L144.853 29.7713L144.848 29.7604L144.58 29.8945ZM140.922 26.9209L141.062 26.6551L141.059 26.6537L140.922 26.9209ZM137.231 24.9727L137.398 24.7229L137.389 24.7178L137.231 24.9727ZM135.317 16.8037L135.101 16.595L135.1 16.5969L135.317 16.8037ZM147.519 15.9834L147.392 16.2549L147.819 16.4558V15.9834H147.519ZM147.553 15.4365L147.263 15.3602L147.259 15.3769L147.256 15.3941L147.553 15.4365ZM148.681 14.7871H148.981V14.4871H148.681V14.7871ZM148.681 20.9736V21.2736H148.981V20.9736H148.681ZM147.348 20.9736L147.048 20.9792L147.054 21.2736H147.348V20.9736ZM146.46 17.7949L146.712 17.633L146.71 17.6294L146.46 17.7949ZM140.888 15.8809L140.798 15.5947L140.793 15.5963L140.888 15.8809ZM139.282 20.0508L139.011 20.1798L139.012 20.1824L139.282 20.0508ZM142.871 23.0244L143.012 22.7596L143.01 22.7587L142.871 23.0244ZM146.46 24.9385L146.623 24.6868L146.613 24.6801L146.602 24.6743L146.46 24.9385ZM149.27 29.792C149.27 31.2155 148.767 32.4142 147.754 33.4057L148.173 33.8345C149.302 32.7297 149.87 31.3763 149.87 29.792H149.27ZM147.756 33.4033C146.28 34.8146 144.143 35.5418 141.298 35.5418V36.1418C144.242 36.1418 146.548 35.3879 148.171 33.837L147.756 33.4033ZM141.298 35.5418C138.863 35.5418 136.804 34.9726 135.107 33.8485L134.775 34.3487C136.587 35.5489 138.767 36.1418 141.298 36.1418V35.5418ZM134.641 34.0986C134.641 34.4774 134.618 34.7627 134.578 34.9627L135.167 35.0803C135.218 34.8245 135.241 34.4946 135.241 34.0986H134.641ZM134.586 34.932C134.555 35.0308 134.494 35.1059 134.38 35.1633C134.255 35.2257 134.062 35.2684 133.779 35.2684V35.8684C134.111 35.8684 134.408 35.8198 134.648 35.7C134.898 35.5751 135.076 35.3767 135.159 35.111L134.586 34.932ZM134.079 35.5684V28.3223H133.479V35.5684H134.079ZM133.779 28.6223H135.112V28.0223H133.779V28.6223ZM134.813 28.3448C134.906 29.5802 135.163 30.6853 135.589 31.6558L136.139 31.4146C135.744 30.5166 135.5 29.4797 135.411 28.2997L134.813 28.3448ZM135.59 31.6567C136.098 32.8045 136.802 33.6832 137.708 34.2731C138.614 34.8631 139.702 35.1506 140.957 35.1506V34.5506C139.796 34.5506 138.827 34.2855 138.036 33.7703C137.244 33.2551 136.609 32.4761 136.138 31.4136L135.59 31.6567ZM140.957 35.1506C141.623 35.1506 142.238 35.0553 142.798 34.8605L142.601 34.2938C142.113 34.4636 141.566 34.5506 140.957 34.5506V35.1506ZM142.805 34.858C143.582 34.5667 144.184 34.1214 144.59 33.5131C144.995 32.906 145.187 32.1607 145.187 31.2959H144.587C144.587 32.0717 144.415 32.6936 144.091 33.1803C143.767 33.6657 143.276 34.0407 142.594 34.2962L142.805 34.858ZM145.187 31.2959C145.187 30.7731 145.075 30.2641 144.853 29.7714L144.306 30.0176C144.495 30.4364 144.587 30.8617 144.587 31.2959H145.187ZM144.848 29.7604C144.324 28.7122 143.028 27.6842 141.062 26.6551L140.783 27.1867C142.736 28.2084 143.878 29.1628 144.311 30.0287L144.848 29.7604ZM141.059 26.6537C138.86 25.5313 137.652 24.8928 137.397 24.723L137.065 25.2223C137.357 25.4171 138.61 26.0774 140.786 27.1881L141.059 26.6537ZM137.389 24.7178C135.279 23.4069 134.284 21.8719 134.284 20.1191H133.684C133.684 22.1489 134.854 23.8496 137.073 25.2275L137.389 24.7178ZM134.284 20.1191C134.284 18.921 134.698 17.8896 135.534 17.0105L135.1 16.5969C134.159 17.5863 133.684 18.7652 133.684 20.1191H134.284ZM135.533 17.0124C136.847 15.6546 138.83 14.9504 141.538 14.9504V14.3504C138.731 14.3504 136.567 15.0817 135.101 16.595L135.533 17.0124ZM141.538 14.9504C143.59 14.9504 145.54 15.3851 147.392 16.2549L147.647 15.7119C145.715 14.8044 143.678 14.3504 141.538 14.3504V14.9504ZM147.819 15.9834C147.819 15.7889 147.83 15.6212 147.85 15.479L147.256 15.3941C147.231 15.5708 147.219 15.7678 147.219 15.9834H147.819ZM147.843 15.5129C147.881 15.3711 147.954 15.2763 148.07 15.2094C148.196 15.1369 148.392 15.0871 148.681 15.0871V14.4871C148.333 14.4871 148.021 14.5455 147.771 14.6895C147.511 14.8391 147.34 15.069 147.263 15.3602L147.843 15.5129ZM148.381 14.7871V20.9736H148.981V14.7871H148.381ZM148.681 20.6736H147.348V21.2736H148.681V20.6736ZM147.648 20.9681C147.625 19.6915 147.316 18.5757 146.712 17.633L146.207 17.9568C146.742 18.7915 147.026 19.7949 147.048 20.9792L147.648 20.9681ZM146.71 17.6294C145.714 16.1229 144.212 15.3758 142.255 15.3758V15.9758C144.036 15.9758 145.337 16.6414 146.209 17.9604L146.71 17.6294ZM142.255 15.3758C141.748 15.3758 141.262 15.4483 140.798 15.5948L140.979 16.1669C141.381 16.0399 141.806 15.9758 142.255 15.9758V15.3758ZM140.793 15.5963C140.099 15.8276 139.554 16.1893 139.185 16.6951C138.815 17.2013 138.64 17.8254 138.64 18.5469H139.24C139.24 17.9239 139.39 17.4315 139.669 17.0491C139.949 16.6661 140.378 16.3671 140.983 16.1655L140.793 15.5963ZM138.64 18.5469C138.64 19.1161 138.764 19.6614 139.011 20.1798L139.553 19.9218C139.344 19.4831 139.24 19.0258 139.24 18.5469H138.64ZM139.012 20.1824C139.535 21.2536 140.807 22.2823 142.732 23.2902L143.01 22.7587C141.106 21.7613 139.985 20.8075 139.551 19.9191L139.012 20.1824ZM142.73 23.2892C144.826 24.406 146.022 25.0435 146.317 25.2026L146.602 24.6743C146.305 24.5144 145.108 23.8759 143.012 22.7596L142.73 23.2892ZM146.296 25.1902C148.314 26.4983 149.27 28.033 149.27 29.792H149.87C149.87 27.7684 148.752 26.0674 146.623 24.6868L146.296 25.1902ZM169.437 34.6455L169.509 34.3545L169.502 34.3527L169.495 34.3513L169.437 34.6455ZM169.847 35.5V35.8H170.147V35.5H169.847ZM163.763 35.5L163.463 35.5183L163.48 35.8H163.763V35.5ZM163.592 32.6973L163.891 32.679L163.823 31.5636L163.323 32.5631L163.592 32.6973ZM163.387 33.1074L163.645 33.2594L163.651 33.2507L163.655 33.2416L163.387 33.1074ZM158.704 35.8418L158.702 36.1418H158.704V35.8418ZM153.816 30.2705H153.516L153.516 30.2742L153.816 30.2705ZM153.816 21.6914H154.116V21.3914H153.816V21.6914ZM151.834 21.6914H151.534V21.9914H151.834V21.6914ZM151.834 20.8027V20.5027H151.534V20.8027H151.834ZM158.157 20.8027H158.457V20.5027H158.157V20.8027ZM158.226 31.7744L158.522 31.7301L158.522 31.7288L158.226 31.7744ZM161.541 33.8252L161.668 34.0971L161.675 34.0935L161.541 33.8252ZM163.489 30.3047L163.788 30.3315L163.789 30.3187L163.789 30.3059L163.489 30.3047ZM163.523 21.6914L163.823 21.6926L163.825 21.3914H163.523V21.6914ZM161.849 21.6914H161.549V21.9914H161.849V21.6914ZM161.849 20.8027V20.5027H161.549V20.8027H161.849ZM167.864 20.8027H168.164V20.5027H167.864V20.8027ZM167.864 34.6113H167.564V34.9113H167.864V34.6113ZM169.026 34.9113C169.173 34.9113 169.289 34.9219 169.378 34.9397L169.495 34.3513C169.356 34.3235 169.199 34.3113 169.026 34.3113V34.9113ZM169.364 34.9366C169.403 34.9463 169.439 34.9673 169.474 35.0402C169.514 35.1252 169.547 35.2707 169.547 35.5H170.147C170.147 35.228 170.111 34.9804 170.015 34.7806C169.913 34.5687 169.744 34.4131 169.509 34.3545L169.364 34.9366ZM169.847 35.2H163.763V35.8H169.847V35.2ZM164.062 35.4817L163.891 32.679L163.292 32.7155L163.463 35.5183L164.062 35.4817ZM163.323 32.5631C163.323 32.5634 163.323 32.5636 163.323 32.5639C163.323 32.5642 163.323 32.5644 163.323 32.5647C163.323 32.565 163.322 32.5652 163.322 32.5655C163.322 32.5658 163.322 32.566 163.322 32.5663C163.322 32.5666 163.322 32.5668 163.321 32.5671C163.321 32.5674 163.321 32.5676 163.321 32.5679C163.321 32.5682 163.321 32.5684 163.321 32.5687C163.321 32.569 163.32 32.5692 163.32 32.5695C163.32 32.5698 163.32 32.57 163.32 32.5703C163.32 32.5706 163.32 32.5708 163.319 32.5711C163.319 32.5714 163.319 32.5716 163.319 32.5719C163.319 32.5722 163.319 32.5724 163.319 32.5727C163.319 32.573 163.318 32.5732 163.318 32.5735C163.318 32.5738 163.318 32.574 163.318 32.5743C163.318 32.5746 163.318 32.5749 163.317 32.5751C163.317 32.5754 163.317 32.5757 163.317 32.5759C163.317 32.5762 163.317 32.5765 163.317 32.5767C163.317 32.577 163.316 32.5773 163.316 32.5775C163.316 32.5778 163.316 32.5781 163.316 32.5783C163.316 32.5786 163.316 32.5789 163.315 32.5791C163.315 32.5794 163.315 32.5797 163.315 32.5799C163.315 32.5802 163.315 32.5805 163.315 32.5807C163.315 32.581 163.314 32.5813 163.314 32.5815C163.314 32.5818 163.314 32.5821 163.314 32.5823C163.314 32.5826 163.314 32.5829 163.313 32.5831C163.313 32.5834 163.313 32.5837 163.313 32.5839C163.313 32.5842 163.313 32.5845 163.313 32.5847C163.313 32.585 163.312 32.5853 163.312 32.5855C163.312 32.5858 163.312 32.5861 163.312 32.5863C163.312 32.5866 163.312 32.5869 163.311 32.5871C163.311 32.5874 163.311 32.5877 163.311 32.5879C163.311 32.5882 163.311 32.5885 163.311 32.5887C163.311 32.589 163.31 32.5893 163.31 32.5895C163.31 32.5898 163.31 32.5901 163.31 32.5903C163.31 32.5906 163.31 32.5909 163.309 32.5911C163.309 32.5914 163.309 32.5917 163.309 32.5919C163.309 32.5922 163.309 32.5925 163.309 32.5927C163.309 32.593 163.308 32.5933 163.308 32.5935C163.308 32.5938 163.308 32.5941 163.308 32.5943C163.308 32.5946 163.308 32.5949 163.307 32.5951C163.307 32.5954 163.307 32.5957 163.307 32.5959C163.307 32.5962 163.307 32.5965 163.307 32.5967C163.307 32.597 163.306 32.5973 163.306 32.5975C163.306 32.5978 163.306 32.5981 163.306 32.5983C163.306 32.5986 163.306 32.5989 163.305 32.5991C163.305 32.5994 163.305 32.5997 163.305 32.6C163.305 32.6002 163.305 32.6005 163.305 32.6008C163.305 32.601 163.304 32.6013 163.304 32.6016C163.304 32.6018 163.304 32.6021 163.304 32.6024C163.304 32.6026 163.304 32.6029 163.303 32.6032C163.303 32.6034 163.303 32.6037 163.303 32.604C163.303 32.6042 163.303 32.6045 163.303 32.6048C163.303 32.605 163.302 32.6053 163.302 32.6056C163.302 32.6058 163.302 32.6061 163.302 32.6064C163.302 32.6066 163.302 32.6069 163.301 32.6072C163.301 32.6074 163.301 32.6077 163.301 32.608C163.301 32.6082 163.301 32.6085 163.301 32.6088C163.301 32.609 163.3 32.6093 163.3 32.6096C163.3 32.6098 163.3 32.6101 163.3 32.6104C163.3 32.6106 163.3 32.6109 163.299 32.6112C163.299 32.6114 163.299 32.6117 163.299 32.612C163.299 32.6122 163.299 32.6125 163.299 32.6128C163.299 32.613 163.298 32.6133 163.298 32.6136C163.298 32.6138 163.298 32.6141 163.298 32.6144C163.298 32.6146 163.298 32.6149 163.297 32.6152C163.297 32.6154 163.297 32.6157 163.297 32.616C163.297 32.6162 163.297 32.6165 163.297 32.6168C163.297 32.617 163.296 32.6173 163.296 32.6176C163.296 32.6178 163.296 32.6181 163.296 32.6184C163.296 32.6186 163.296 32.6189 163.295 32.6192C163.295 32.6194 163.295 32.6197 163.295 32.62C163.295 32.6202 163.295 32.6205 163.295 32.6208C163.294 32.621 163.294 32.6213 163.294 32.6216C163.294 32.6218 163.294 32.6221 163.294 32.6224C163.294 32.6226 163.294 32.6229 163.293 32.6232C163.293 32.6234 163.293 32.6237 163.293 32.624C163.293 32.6243 163.293 32.6245 163.293 32.6248C163.292 32.6251 163.292 32.6253 163.292 32.6256C163.292 32.6259 163.292 32.6261 163.292 32.6264C163.292 32.6267 163.292 32.6269 163.291 32.6272C163.291 32.6275 163.291 32.6277 163.291 32.628C163.291 32.6283 163.291 32.6285 163.291 32.6288C163.29 32.6291 163.29 32.6293 163.29 32.6296C163.29 32.6299 163.29 32.6301 163.29 32.6304C163.29 32.6307 163.29 32.6309 163.289 32.6312C163.289 32.6315 163.289 32.6317 163.289 32.632C163.289 32.6323 163.289 32.6325 163.289 32.6328C163.288 32.6331 163.288 32.6333 163.288 32.6336C163.288 32.6339 163.288 32.6341 163.288 32.6344C163.288 32.6347 163.288 32.6349 163.287 32.6352C163.287 32.6355 163.287 32.6357 163.287 32.636C163.287 32.6363 163.287 32.6365 163.287 32.6368C163.286 32.6371 163.286 32.6373 163.286 32.6376C163.286 32.6379 163.286 32.6381 163.286 32.6384C163.286 32.6387 163.286 32.6389 163.285 32.6392C163.285 32.6395 163.285 32.6397 163.285 32.64C163.285 32.6403 163.285 32.6405 163.285 32.6408C163.284 32.6411 163.284 32.6413 163.284 32.6416C163.284 32.6419 163.284 32.6421 163.284 32.6424C163.284 32.6427 163.284 32.6429 163.283 32.6432C163.283 32.6435 163.283 32.6437 163.283 32.644C163.283 32.6443 163.283 32.6445 163.283 32.6448C163.282 32.6451 163.282 32.6453 163.282 32.6456C163.282 32.6459 163.282 32.6461 163.282 32.6464C163.282 32.6467 163.282 32.6469 163.281 32.6472C163.281 32.6475 163.281 32.6477 163.281 32.648C163.281 32.6483 163.281 32.6486 163.281 32.6488C163.28 32.6491 163.28 32.6494 163.28 32.6496C163.28 32.6499 163.28 32.6502 163.28 32.6504C163.28 32.6507 163.28 32.651 163.279 32.6512C163.279 32.6515 163.279 32.6518 163.279 32.652C163.279 32.6523 163.279 32.6526 163.279 32.6528C163.278 32.6531 163.278 32.6534 163.278 32.6536C163.278 32.6539 163.278 32.6542 163.278 32.6544C163.278 32.6547 163.278 32.655 163.277 32.6552C163.277 32.6555 163.277 32.6558 163.277 32.656C163.277 32.6563 163.277 32.6566 163.277 32.6568C163.276 32.6571 163.276 32.6574 163.276 32.6576C163.276 32.6579 163.276 32.6582 163.276 32.6584C163.276 32.6587 163.276 32.659 163.275 32.6592C163.275 32.6595 163.275 32.6598 163.275 32.66C163.275 32.6603 163.275 32.6606 163.275 32.6608C163.274 32.6611 163.274 32.6614 163.274 32.6616C163.274 32.6619 163.274 32.6622 163.274 32.6624C163.274 32.6627 163.274 32.663 163.273 32.6632C163.273 32.6635 163.273 32.6638 163.273 32.664C163.273 32.6643 163.273 32.6646 163.273 32.6648C163.272 32.6651 163.272 32.6654 163.272 32.6656C163.272 32.6659 163.272 32.6662 163.272 32.6664C163.272 32.6667 163.272 32.667 163.271 32.6672C163.271 32.6675 163.271 32.6678 163.271 32.668C163.271 32.6683 163.271 32.6686 163.271 32.6688C163.27 32.6691 163.27 32.6694 163.27 32.6696C163.27 32.6699 163.27 32.6702 163.27 32.6704C163.27 32.6707 163.27 32.671 163.269 32.6712C163.269 32.6715 163.269 32.6718 163.269 32.672C163.269 32.6723 163.269 32.6726 163.269 32.6728C163.268 32.6731 163.268 32.6734 163.268 32.6737C163.268 32.6739 163.268 32.6742 163.268 32.6745C163.268 32.6747 163.268 32.675 163.267 32.6753C163.267 32.6755 163.267 32.6758 163.267 32.6761C163.267 32.6763 163.267 32.6766 163.267 32.6769C163.266 32.6771 163.266 32.6774 163.266 32.6777C163.266 32.6779 163.266 32.6782 163.266 32.6785C163.266 32.6787 163.266 32.679 163.265 32.6793C163.265 32.6795 163.265 32.6798 163.265 32.6801C163.265 32.6803 163.265 32.6806 163.265 32.6809C163.264 32.6811 163.264 32.6814 163.264 32.6817C163.264 32.6819 163.264 32.6822 163.264 32.6825C163.264 32.6827 163.264 32.683 163.263 32.6833C163.263 32.6835 163.263 32.6838 163.263 32.6841C163.263 32.6843 163.263 32.6846 163.263 32.6849C163.262 32.6851 163.262 32.6854 163.262 32.6857C163.262 32.6859 163.262 32.6862 163.262 32.6865C163.262 32.6867 163.262 32.687 163.261 32.6873C163.261 32.6875 163.261 32.6878 163.261 32.6881C163.261 32.6883 163.261 32.6886 163.261 32.6889C163.26 32.6891 163.26 32.6894 163.26 32.6897C163.26 32.6899 163.26 32.6902 163.26 32.6905C163.26 32.6907 163.26 32.691 163.259 32.6913C163.259 32.6915 163.259 32.6918 163.259 32.6921C163.259 32.6923 163.259 32.6926 163.259 32.6929C163.258 32.6931 163.258 32.6934 163.258 32.6937C163.258 32.6939 163.258 32.6942 163.258 32.6945C163.258 32.6947 163.258 32.695 163.257 32.6953C163.257 32.6955 163.257 32.6958 163.257 32.6961C163.257 32.6963 163.257 32.6966 163.257 32.6969C163.256 32.6971 163.256 32.6974 163.256 32.6977C163.256 32.698 163.256 32.6982 163.256 32.6985C163.256 32.6988 163.256 32.699 163.255 32.6993C163.255 32.6996 163.255 32.6998 163.255 32.7001C163.255 32.7004 163.255 32.7006 163.255 32.7009C163.254 32.7012 163.254 32.7014 163.254 32.7017C163.254 32.702 163.254 32.7022 163.254 32.7025C163.254 32.7028 163.254 32.703 163.253 32.7033C163.253 32.7036 163.253 32.7038 163.253 32.7041C163.253 32.7044 163.253 32.7046 163.253 32.7049C163.252 32.7052 163.252 32.7054 163.252 32.7057C163.252 32.706 163.252 32.7062 163.252 32.7065C163.252 32.7068 163.252 32.707 163.251 32.7073C163.251 32.7076 163.251 32.7078 163.251 32.7081C163.251 32.7084 163.251 32.7086 163.251 32.7089C163.25 32.7092 163.25 32.7094 163.25 32.7097C163.25 32.71 163.25 32.7102 163.25 32.7105C163.25 32.7108 163.25 32.711 163.249 32.7113C163.249 32.7116 163.249 32.7118 163.249 32.7121C163.249 32.7124 163.249 32.7126 163.249 32.7129C163.248 32.7132 163.248 32.7134 163.248 32.7137C163.248 32.714 163.248 32.7142 163.248 32.7145C163.248 32.7148 163.247 32.715 163.247 32.7153C163.247 32.7156 163.247 32.7158 163.247 32.7161C163.247 32.7164 163.247 32.7166 163.247 32.7169C163.246 32.7172 163.246 32.7174 163.246 32.7177C163.246 32.718 163.246 32.7182 163.246 32.7185C163.246 32.7188 163.245 32.719 163.245 32.7193C163.245 32.7196 163.245 32.7198 163.245 32.7201C163.245 32.7204 163.245 32.7206 163.245 32.7209C163.244 32.7212 163.244 32.7214 163.244 32.7217C163.244 32.722 163.244 32.7222 163.244 32.7225C163.244 32.7228 163.243 32.7231 163.243 32.7233C163.243 32.7236 163.243 32.7239 163.243 32.7241C163.243 32.7244 163.243 32.7247 163.243 32.7249C163.242 32.7252 163.242 32.7255 163.242 32.7257C163.242 32.726 163.242 32.7263 163.242 32.7265C163.242 32.7268 163.241 32.7271 163.241 32.7273C163.241 32.7276 163.241 32.7279 163.241 32.7281C163.241 32.7284 163.241 32.7287 163.241 32.7289C163.24 32.7292 163.24 32.7295 163.24 32.7297C163.24 32.73 163.24 32.7303 163.24 32.7305C163.24 32.7308 163.239 32.7311 163.239 32.7313C163.239 32.7316 163.239 32.7319 163.239 32.7321C163.239 32.7324 163.239 32.7327 163.239 32.7329C163.238 32.7332 163.238 32.7335 163.238 32.7337C163.238 32.734 163.238 32.7343 163.238 32.7345C163.238 32.7348 163.237 32.7351 163.237 32.7353C163.237 32.7356 163.237 32.7359 163.237 32.7361C163.237 32.7364 163.237 32.7367 163.237 32.7369C163.236 32.7372 163.236 32.7375 163.236 32.7377C163.236 32.738 163.236 32.7383 163.236 32.7385C163.236 32.7388 163.235 32.7391 163.235 32.7393C163.235 32.7396 163.235 32.7399 163.235 32.7401C163.235 32.7404 163.235 32.7407 163.235 32.7409C163.234 32.7412 163.234 32.7415 163.234 32.7417C163.234 32.742 163.234 32.7423 163.234 32.7425C163.234 32.7428 163.233 32.7431 163.233 32.7433C163.233 32.7436 163.233 32.7439 163.233 32.7441C163.233 32.7444 163.233 32.7447 163.233 32.7449C163.232 32.7452 163.232 32.7455 163.232 32.7457C163.232 32.746 163.232 32.7463 163.232 32.7465C163.232 32.7468 163.231 32.7471 163.231 32.7474C163.231 32.7476 163.231 32.7479 163.231 32.7482C163.231 32.7484 163.231 32.7487 163.231 32.749C163.23 32.7492 163.23 32.7495 163.23 32.7498C163.23 32.75 163.23 32.7503 163.23 32.7506C163.23 32.7508 163.229 32.7511 163.229 32.7514C163.229 32.7516 163.229 32.7519 163.229 32.7522C163.229 32.7524 163.229 32.7527 163.229 32.753C163.228 32.7532 163.228 32.7535 163.228 32.7538C163.228 32.754 163.228 32.7543 163.228 32.7546C163.228 32.7548 163.227 32.7551 163.227 32.7554C163.227 32.7556 163.227 32.7559 163.227 32.7562C163.227 32.7564 163.227 32.7567 163.227 32.757C163.226 32.7572 163.226 32.7575 163.226 32.7578C163.226 32.758 163.226 32.7583 163.226 32.7586C163.226 32.7588 163.225 32.7591 163.225 32.7594C163.225 32.7596 163.225 32.7599 163.225 32.7602C163.225 32.7604 163.225 32.7607 163.225 32.761C163.224 32.7612 163.224 32.7615 163.224 32.7618C163.224 32.762 163.224 32.7623 163.224 32.7626C163.224 32.7628 163.223 32.7631 163.223 32.7634C163.223 32.7636 163.223 32.7639 163.223 32.7642C163.223 32.7644 163.223 32.7647 163.223 32.765C163.222 32.7652 163.222 32.7655 163.222 32.7658C163.222 32.766 163.222 32.7663 163.222 32.7666C163.222 32.7668 163.221 32.7671 163.221 32.7674C163.221 32.7676 163.221 32.7679 163.221 32.7682C163.221 32.7684 163.221 32.7687 163.221 32.769C163.22 32.7692 163.22 32.7695 163.22 32.7698C163.22 32.77 163.22 32.7703 163.22 32.7706C163.22 32.7708 163.219 32.7711 163.219 32.7714C163.219 32.7717 163.219 32.7719 163.219 32.7722C163.219 32.7725 163.219 32.7727 163.219 32.773C163.218 32.7733 163.218 32.7735 163.218 32.7738C163.218 32.7741 163.218 32.7743 163.218 32.7746C163.218 32.7749 163.217 32.7751 163.217 32.7754C163.217 32.7757 163.217 32.7759 163.217 32.7762C163.217 32.7765 163.217 32.7767 163.217 32.777C163.216 32.7773 163.216 32.7775 163.216 32.7778C163.216 32.7781 163.216 32.7783 163.216 32.7786C163.216 32.7789 163.215 32.7791 163.215 32.7794C163.215 32.7797 163.215 32.7799 163.215 32.7802C163.215 32.7805 163.215 32.7807 163.215 32.781C163.214 32.7813 163.214 32.7815 163.214 32.7818C163.214 32.7821 163.214 32.7823 163.214 32.7826C163.214 32.7829 163.213 32.7831 163.213 32.7834C163.213 32.7837 163.213 32.7839 163.213 32.7842C163.213 32.7845 163.213 32.7847 163.213 32.785C163.212 32.7853 163.212 32.7855 163.212 32.7858C163.212 32.7861 163.212 32.7863 163.212 32.7866C163.212 32.7869 163.211 32.7871 163.211 32.7874C163.211 32.7877 163.211 32.7879 163.211 32.7882C163.211 32.7885 163.211 32.7887 163.211 32.789C163.21 32.7893 163.21 32.7895 163.21 32.7898C163.21 32.7901 163.21 32.7903 163.21 32.7906C163.21 32.7909 163.209 32.7911 163.209 32.7914C163.209 32.7917 163.209 32.7919 163.209 32.7922C163.209 32.7925 163.209 32.7927 163.209 32.793C163.208 32.7933 163.208 32.7935 163.208 32.7938C163.208 32.7941 163.208 32.7943 163.208 32.7946C163.208 32.7949 163.207 32.7951 163.207 32.7954C163.207 32.7957 163.207 32.7959 163.207 32.7962C163.207 32.7965 163.207 32.7968 163.207 32.797C163.206 32.7973 163.206 32.7976 163.206 32.7978C163.206 32.7981 163.206 32.7984 163.206 32.7986C163.206 32.7989 163.205 32.7992 163.205 32.7994C163.205 32.7997 163.205 32.8 163.205 32.8002C163.205 32.8005 163.205 32.8008 163.205 32.801C163.204 32.8013 163.204 32.8016 163.204 32.8018C163.204 32.8021 163.204 32.8024 163.204 32.8026C163.204 32.8029 163.203 32.8032 163.203 32.8034C163.203 32.8037 163.203 32.804 163.203 32.8042C163.203 32.8045 163.203 32.8048 163.203 32.805C163.202 32.8053 163.202 32.8056 163.202 32.8058C163.202 32.8061 163.202 32.8064 163.202 32.8066C163.202 32.8069 163.201 32.8072 163.201 32.8074C163.201 32.8077 163.201 32.808 163.201 32.8082C163.201 32.8085 163.201 32.8088 163.201 32.809C163.2 32.8093 163.2 32.8096 163.2 32.8098C163.2 32.8101 163.2 32.8104 163.2 32.8106C163.2 32.8109 163.199 32.8112 163.199 32.8114C163.199 32.8117 163.199 32.812 163.199 32.8122C163.199 32.8125 163.199 32.8128 163.199 32.813C163.198 32.8133 163.198 32.8136 163.198 32.8138C163.198 32.8141 163.198 32.8144 163.198 32.8146C163.198 32.8149 163.197 32.8152 163.197 32.8154C163.197 32.8157 163.197 32.816 163.197 32.8162C163.197 32.8165 163.197 32.8168 163.196 32.817C163.196 32.8173 163.196 32.8176 163.196 32.8178C163.196 32.8181 163.196 32.8184 163.196 32.8186C163.196 32.8189 163.195 32.8192 163.195 32.8194C163.195 32.8197 163.195 32.82 163.195 32.8202C163.195 32.8205 163.195 32.8208 163.194 32.8211C163.194 32.8213 163.194 32.8216 163.194 32.8219C163.194 32.8221 163.194 32.8224 163.194 32.8227C163.194 32.8229 163.193 32.8232 163.193 32.8235C163.193 32.8237 163.193 32.824 163.193 32.8243C163.193 32.8245 163.193 32.8248 163.192 32.8251C163.192 32.8253 163.192 32.8256 163.192 32.8259C163.192 32.8261 163.192 32.8264 163.192 32.8267C163.192 32.8269 163.191 32.8272 163.191 32.8275C163.191 32.8277 163.191 32.828 163.191 32.8283C163.191 32.8285 163.191 32.8288 163.19 32.8291C163.19 32.8293 163.19 32.8296 163.19 32.8299C163.19 32.8301 163.19 32.8304 163.19 32.8307C163.19 32.8309 163.189 32.8312 163.189 32.8315C163.189 32.8317 163.189 32.832 163.189 32.8323C163.189 32.8325 163.189 32.8328 163.188 32.8331C163.188 32.8333 163.188 32.8336 163.188 32.8339C163.188 32.8341 163.188 32.8344 163.188 32.8347C163.188 32.8349 163.187 32.8352 163.187 32.8355C163.187 32.8357 163.187 32.836 163.187 32.8363C163.187 32.8365 163.187 32.8368 163.186 32.8371C163.186 32.8373 163.186 32.8376 163.186 32.8379C163.186 32.8381 163.186 32.8384 163.186 32.8387C163.186 32.8389 163.185 32.8392 163.185 32.8395C163.185 32.8397 163.185 32.84 163.185 32.8403C163.185 32.8405 163.185 32.8408 163.184 32.8411C163.184 32.8413 163.184 32.8416 163.184 32.8419C163.184 32.8421 163.184 32.8424 163.184 32.8427C163.184 32.8429 163.183 32.8432 163.183 32.8435C163.183 32.8437 163.183 32.844 163.183 32.8443C163.183 32.8445 163.183 32.8448 163.182 32.8451C163.182 32.8454 163.182 32.8456 163.182 32.8459C163.182 32.8462 163.182 32.8464 163.182 32.8467C163.182 32.847 163.181 32.8472 163.181 32.8475C163.181 32.8478 163.181 32.848 163.181 32.8483C163.181 32.8486 163.181 32.8488 163.18 32.8491C163.18 32.8494 163.18 32.8496 163.18 32.8499C163.18 32.8502 163.18 32.8504 163.18 32.8507C163.18 32.851 163.179 32.8512 163.179 32.8515C163.179 32.8518 163.179 32.852 163.179 32.8523C163.179 32.8526 163.179 32.8528 163.178 32.8531C163.178 32.8534 163.178 32.8536 163.178 32.8539C163.178 32.8542 163.178 32.8544 163.178 32.8547C163.178 32.855 163.177 32.8552 163.177 32.8555C163.177 32.8558 163.177 32.856 163.177 32.8563C163.177 32.8566 163.177 32.8568 163.176 32.8571C163.176 32.8574 163.176 32.8576 163.176 32.8579C163.176 32.8582 163.176 32.8584 163.176 32.8587C163.176 32.859 163.175 32.8592 163.175 32.8595C163.175 32.8598 163.175 32.86 163.175 32.8603C163.175 32.8606 163.175 32.8608 163.174 32.8611C163.174 32.8614 163.174 32.8616 163.174 32.8619C163.174 32.8622 163.174 32.8624 163.174 32.8627C163.174 32.863 163.173 32.8632 163.173 32.8635C163.173 32.8638 163.173 32.864 163.173 32.8643C163.173 32.8646 163.173 32.8648 163.172 32.8651C163.172 32.8654 163.172 32.8656 163.172 32.8659C163.172 32.8662 163.172 32.8664 163.172 32.8667C163.172 32.867 163.171 32.8672 163.171 32.8675C163.171 32.8678 163.171 32.868 163.171 32.8683C163.171 32.8686 163.171 32.8688 163.17 32.8691C163.17 32.8694 163.17 32.8696 163.17 32.8699C163.17 32.8702 163.17 32.8705 163.17 32.8707C163.17 32.871 163.169 32.8713 163.169 32.8715C163.169 32.8718 163.169 32.8721 163.169 32.8723C163.169 32.8726 163.169 32.8729 163.168 32.8731C163.168 32.8734 163.168 32.8737 163.168 32.8739C163.168 32.8742 163.168 32.8745 163.168 32.8747C163.168 32.875 163.167 32.8753 163.167 32.8755C163.167 32.8758 163.167 32.8761 163.167 32.8763C163.167 32.8766 163.167 32.8769 163.166 32.8771C163.166 32.8774 163.166 32.8777 163.166 32.8779C163.166 32.8782 163.166 32.8785 163.166 32.8787C163.166 32.879 163.165 32.8793 163.165 32.8795C163.165 32.8798 163.165 32.8801 163.165 32.8803C163.165 32.8806 163.165 32.8809 163.164 32.8811C163.164 32.8814 163.164 32.8817 163.164 32.8819C163.164 32.8822 163.164 32.8825 163.164 32.8827C163.164 32.883 163.163 32.8833 163.163 32.8835C163.163 32.8838 163.163 32.8841 163.163 32.8843C163.163 32.8846 163.163 32.8849 163.162 32.8851C163.162 32.8854 163.162 32.8857 163.162 32.8859C163.162 32.8862 163.162 32.8865 163.162 32.8867C163.162 32.887 163.161 32.8873 163.161 32.8875C163.161 32.8878 163.161 32.8881 163.161 32.8883C163.161 32.8886 163.161 32.8889 163.16 32.8891C163.16 32.8894 163.16 32.8897 163.16 32.8899C163.16 32.8902 163.16 32.8905 163.16 32.8907C163.16 32.891 163.159 32.8913 163.159 32.8915C163.159 32.8918 163.159 32.8921 163.159 32.8923C163.159 32.8926 163.159 32.8929 163.158 32.8931C163.158 32.8934 163.158 32.8937 163.158 32.8939C163.158 32.8942 163.158 32.8945 163.158 32.8948C163.158 32.895 163.157 32.8953 163.157 32.8956C163.157 32.8958 163.157 32.8961 163.157 32.8964C163.157 32.8966 163.157 32.8969 163.156 32.8972C163.156 32.8974 163.156 32.8977 163.156 32.898C163.156 32.8982 163.156 32.8985 163.156 32.8988C163.156 32.899 163.155 32.8993 163.155 32.8996C163.155 32.8998 163.155 32.9001 163.155 32.9004C163.155 32.9006 163.155 32.9009 163.154 32.9012C163.154 32.9014 163.154 32.9017 163.154 32.902C163.154 32.9022 163.154 32.9025 163.154 32.9028C163.154 32.903 163.153 32.9033 163.153 32.9036C163.153 32.9038 163.153 32.9041 163.153 32.9044C163.153 32.9046 163.153 32.9049 163.152 32.9052C163.152 32.9054 163.152 32.9057 163.152 32.906C163.152 32.9062 163.152 32.9065 163.152 32.9068C163.152 32.907 163.151 32.9073 163.151 32.9076C163.151 32.9078 163.151 32.9081 163.151 32.9084C163.151 32.9086 163.151 32.9089 163.15 32.9092C163.15 32.9094 163.15 32.9097 163.15 32.91C163.15 32.9102 163.15 32.9105 163.15 32.9108C163.149 32.911 163.149 32.9113 163.149 32.9116C163.149 32.9118 163.149 32.9121 163.149 32.9124C163.149 32.9126 163.149 32.9129 163.148 32.9132C163.148 32.9134 163.148 32.9137 163.148 32.914C163.148 32.9142 163.148 32.9145 163.148 32.9148C163.147 32.915 163.147 32.9153 163.147 32.9156C163.147 32.9158 163.147 32.9161 163.147 32.9164C163.147 32.9166 163.147 32.9169 163.146 32.9172C163.146 32.9174 163.146 32.9177 163.146 32.918C163.146 32.9182 163.146 32.9185 163.146 32.9188C163.145 32.9191 163.145 32.9193 163.145 32.9196C163.145 32.9199 163.145 32.9201 163.145 32.9204C163.145 32.9207 163.145 32.9209 163.144 32.9212C163.144 32.9215 163.144 32.9217 163.144 32.922C163.144 32.9223 163.144 32.9225 163.144 32.9228C163.143 32.9231 163.143 32.9233 163.143 32.9236C163.143 32.9239 163.143 32.9241 163.143 32.9244C163.143 32.9247 163.143 32.9249 163.142 32.9252C163.142 32.9255 163.142 32.9257 163.142 32.926C163.142 32.9263 163.142 32.9265 163.142 32.9268C163.141 32.9271 163.141 32.9273 163.141 32.9276C163.141 32.9279 163.141 32.9281 163.141 32.9284C163.141 32.9287 163.141 32.9289 163.14 32.9292C163.14 32.9295 163.14 32.9297 163.14 32.93C163.14 32.9303 163.14 32.9305 163.14 32.9308C163.139 32.9311 163.139 32.9313 163.139 32.9316C163.139 32.9319 163.139 32.9321 163.139 32.9324C163.139 32.9327 163.139 32.9329 163.138 32.9332C163.138 32.9335 163.138 32.9337 163.138 32.934C163.138 32.9343 163.138 32.9345 163.138 32.9348C163.137 32.9351 163.137 32.9353 163.137 32.9356C163.137 32.9359 163.137 32.9361 163.137 32.9364C163.137 32.9367 163.137 32.9369 163.136 32.9372C163.136 32.9375 163.136 32.9377 163.136 32.938C163.136 32.9383 163.136 32.9385 163.136 32.9388C163.135 32.9391 163.135 32.9393 163.135 32.9396C163.135 32.9399 163.135 32.9401 163.135 32.9404C163.135 32.9407 163.135 32.9409 163.134 32.9412C163.134 32.9415 163.134 32.9417 163.134 32.942C163.134 32.9423 163.134 32.9425 163.134 32.9428C163.133 32.9431 163.133 32.9433 163.133 32.9436C163.133 32.9439 163.133 32.9442 163.133 32.9444C163.133 32.9447 163.133 32.945 163.132 32.9452C163.132 32.9455 163.132 32.9458 163.132 32.946C163.132 32.9463 163.132 32.9466 163.132 32.9468C163.131 32.9471 163.131 32.9474 163.131 32.9476C163.131 32.9479 163.131 32.9482 163.131 32.9484C163.131 32.9487 163.131 32.949 163.13 32.9492C163.13 32.9495 163.13 32.9498 163.13 32.95C163.13 32.9503 163.13 32.9506 163.13 32.9508C163.129 32.9511 163.129 32.9514 163.129 32.9516C163.129 32.9519 163.129 32.9522 163.129 32.9524C163.129 32.9527 163.129 32.953 163.128 32.9532C163.128 32.9535 163.128 32.9538 163.128 32.954C163.128 32.9543 163.128 32.9546 163.128 32.9548C163.127 32.9551 163.127 32.9554 163.127 32.9556C163.127 32.9559 163.127 32.9562 163.127 32.9564C163.127 32.9567 163.127 32.957 163.126 32.9572C163.126 32.9575 163.126 32.9578 163.126 32.958C163.126 32.9583 163.126 32.9586 163.126 32.9588C163.125 32.9591 163.125 32.9594 163.125 32.9596C163.125 32.9599 163.125 32.9602 163.125 32.9604C163.125 32.9607 163.125 32.961 163.124 32.9612C163.124 32.9615 163.124 32.9618 163.124 32.962C163.124 32.9623 163.124 32.9626 163.124 32.9628C163.123 32.9631 163.123 32.9634 163.123 32.9636C163.123 32.9639 163.123 32.9642 163.123 32.9644C163.123 32.9647 163.123 32.965 163.122 32.9652C163.122 32.9655 163.122 32.9658 163.122 32.966C163.122 32.9663 163.122 32.9666 163.122 32.9668C163.121 32.9671 163.121 32.9674 163.121 32.9676C163.121 32.9679 163.121 32.9682 163.121 32.9685C163.121 32.9687 163.121 32.969 163.12 32.9693C163.12 32.9695 163.12 32.9698 163.12 32.9701C163.12 32.9703 163.12 32.9706 163.12 32.9709C163.119 32.9711 163.119 32.9714 163.119 32.9717C163.119 32.9719 163.119 32.9722 163.119 32.9725C163.119 32.9727 163.119 32.973 163.118 32.9733L163.655 33.2416C163.655 33.2413 163.655 33.2411 163.655 33.2408C163.656 33.2405 163.656 33.2403 163.656 33.24C163.656 33.2397 163.656 33.2395 163.656 33.2392C163.656 33.2389 163.657 33.2386 163.657 33.2384C163.657 33.2381 163.657 33.2378 163.657 33.2376C163.657 33.2373 163.657 33.237 163.657 33.2368C163.658 33.2365 163.658 33.2362 163.658 33.236C163.658 33.2357 163.658 33.2354 163.658 33.2352C163.658 33.2349 163.659 33.2346 163.659 33.2344C163.659 33.2341 163.659 33.2338 163.659 33.2336C163.659 33.2333 163.659 33.233 163.659 33.2328C163.66 33.2325 163.66 33.2322 163.66 33.232C163.66 33.2317 163.66 33.2314 163.66 33.2312C163.66 33.2309 163.661 33.2306 163.661 33.2304C163.661 33.2301 163.661 33.2298 163.661 33.2296C163.661 33.2293 163.661 33.229 163.661 33.2288C163.662 33.2285 163.662 33.2282 163.662 33.228C163.662 33.2277 163.662 33.2274 163.662 33.2272C163.662 33.2269 163.663 33.2266 163.663 33.2264C163.663 33.2261 163.663 33.2258 163.663 33.2256C163.663 33.2253 163.663 33.225 163.663 33.2248C163.664 33.2245 163.664 33.2242 163.664 33.224C163.664 33.2237 163.664 33.2234 163.664 33.2232C163.664 33.2229 163.665 33.2226 163.665 33.2224C163.665 33.2221 163.665 33.2218 163.665 33.2216C163.665 33.2213 163.665 33.221 163.665 33.2208C163.666 33.2205 163.666 33.2202 163.666 33.22C163.666 33.2197 163.666 33.2194 163.666 33.2192C163.666 33.2189 163.667 33.2186 163.667 33.2184C163.667 33.2181 163.667 33.2178 163.667 33.2176C163.667 33.2173 163.667 33.217 163.667 33.2168C163.668 33.2165 163.668 33.2162 163.668 33.216C163.668 33.2157 163.668 33.2154 163.668 33.2152C163.668 33.2149 163.669 33.2146 163.669 33.2143C163.669 33.2141 163.669 33.2138 163.669 33.2135C163.669 33.2133 163.669 33.213 163.669 33.2127C163.67 33.2125 163.67 33.2122 163.67 33.2119C163.67 33.2117 163.67 33.2114 163.67 33.2111C163.67 33.2109 163.671 33.2106 163.671 33.2103C163.671 33.2101 163.671 33.2098 163.671 33.2095C163.671 33.2093 163.671 33.209 163.671 33.2087C163.672 33.2085 163.672 33.2082 163.672 33.2079C163.672 33.2077 163.672 33.2074 163.672 33.2071C163.672 33.2069 163.673 33.2066 163.673 33.2063C163.673 33.2061 163.673 33.2058 163.673 33.2055C163.673 33.2053 163.673 33.205 163.673 33.2047C163.674 33.2045 163.674 33.2042 163.674 33.2039C163.674 33.2037 163.674 33.2034 163.674 33.2031C163.674 33.2029 163.675 33.2026 163.675 33.2023C163.675 33.2021 163.675 33.2018 163.675 33.2015C163.675 33.2013 163.675 33.201 163.675 33.2007C163.676 33.2005 163.676 33.2002 163.676 33.1999C163.676 33.1997 163.676 33.1994 163.676 33.1991C163.676 33.1989 163.677 33.1986 163.677 33.1983C163.677 33.1981 163.677 33.1978 163.677 33.1975C163.677 33.1973 163.677 33.197 163.677 33.1967C163.678 33.1965 163.678 33.1962 163.678 33.1959C163.678 33.1957 163.678 33.1954 163.678 33.1951C163.678 33.1949 163.679 33.1946 163.679 33.1943C163.679 33.1941 163.679 33.1938 163.679 33.1935C163.679 33.1933 163.679 33.193 163.679 33.1927C163.68 33.1925 163.68 33.1922 163.68 33.1919C163.68 33.1917 163.68 33.1914 163.68 33.1911C163.68 33.1909 163.681 33.1906 163.681 33.1903C163.681 33.1901 163.681 33.1898 163.681 33.1895C163.681 33.1892 163.681 33.189 163.681 33.1887C163.682 33.1884 163.682 33.1882 163.682 33.1879C163.682 33.1876 163.682 33.1874 163.682 33.1871C163.682 33.1868 163.683 33.1866 163.683 33.1863C163.683 33.186 163.683 33.1858 163.683 33.1855C163.683 33.1852 163.683 33.185 163.683 33.1847C163.684 33.1844 163.684 33.1842 163.684 33.1839C163.684 33.1836 163.684 33.1834 163.684 33.1831C163.684 33.1828 163.685 33.1826 163.685 33.1823C163.685 33.182 163.685 33.1818 163.685 33.1815C163.685 33.1812 163.685 33.181 163.685 33.1807C163.686 33.1804 163.686 33.1802 163.686 33.1799C163.686 33.1796 163.686 33.1794 163.686 33.1791C163.686 33.1788 163.687 33.1786 163.687 33.1783C163.687 33.178 163.687 33.1778 163.687 33.1775C163.687 33.1772 163.687 33.177 163.687 33.1767C163.688 33.1764 163.688 33.1762 163.688 33.1759C163.688 33.1756 163.688 33.1754 163.688 33.1751C163.688 33.1748 163.689 33.1746 163.689 33.1743C163.689 33.174 163.689 33.1738 163.689 33.1735C163.689 33.1732 163.689 33.173 163.689 33.1727C163.69 33.1724 163.69 33.1722 163.69 33.1719C163.69 33.1716 163.69 33.1714 163.69 33.1711C163.69 33.1708 163.691 33.1706 163.691 33.1703C163.691 33.17 163.691 33.1698 163.691 33.1695C163.691 33.1692 163.691 33.169 163.691 33.1687C163.692 33.1684 163.692 33.1682 163.692 33.1679C163.692 33.1676 163.692 33.1674 163.692 33.1671C163.692 33.1668 163.693 33.1666 163.693 33.1663C163.693 33.166 163.693 33.1658 163.693 33.1655C163.693 33.1652 163.693 33.1649 163.693 33.1647C163.694 33.1644 163.694 33.1641 163.694 33.1639C163.694 33.1636 163.694 33.1633 163.694 33.1631C163.694 33.1628 163.695 33.1625 163.695 33.1623C163.695 33.162 163.695 33.1617 163.695 33.1615C163.695 33.1612 163.695 33.1609 163.696 33.1607C163.696 33.1604 163.696 33.1601 163.696 33.1599C163.696 33.1596 163.696 33.1593 163.696 33.1591C163.696 33.1588 163.697 33.1585 163.697 33.1583C163.697 33.158 163.697 33.1577 163.697 33.1575C163.697 33.1572 163.697 33.1569 163.698 33.1567C163.698 33.1564 163.698 33.1561 163.698 33.1559C163.698 33.1556 163.698 33.1553 163.698 33.1551C163.698 33.1548 163.699 33.1545 163.699 33.1543C163.699 33.154 163.699 33.1537 163.699 33.1535C163.699 33.1532 163.699 33.1529 163.7 33.1527C163.7 33.1524 163.7 33.1521 163.7 33.1519C163.7 33.1516 163.7 33.1513 163.7 33.1511C163.7 33.1508 163.701 33.1505 163.701 33.1503C163.701 33.15 163.701 33.1497 163.701 33.1495C163.701 33.1492 163.701 33.1489 163.702 33.1487C163.702 33.1484 163.702 33.1481 163.702 33.1479C163.702 33.1476 163.702 33.1473 163.702 33.1471C163.702 33.1468 163.703 33.1465 163.703 33.1463C163.703 33.146 163.703 33.1457 163.703 33.1455C163.703 33.1452 163.703 33.1449 163.704 33.1447C163.704 33.1444 163.704 33.1441 163.704 33.1439C163.704 33.1436 163.704 33.1433 163.704 33.1431C163.704 33.1428 163.705 33.1425 163.705 33.1423C163.705 33.142 163.705 33.1417 163.705 33.1415C163.705 33.1412 163.705 33.1409 163.706 33.1406C163.706 33.1404 163.706 33.1401 163.706 33.1398C163.706 33.1396 163.706 33.1393 163.706 33.139C163.706 33.1388 163.707 33.1385 163.707 33.1382C163.707 33.138 163.707 33.1377 163.707 33.1374C163.707 33.1372 163.707 33.1369 163.708 33.1366C163.708 33.1364 163.708 33.1361 163.708 33.1358C163.708 33.1356 163.708 33.1353 163.708 33.135C163.708 33.1348 163.709 33.1345 163.709 33.1342C163.709 33.134 163.709 33.1337 163.709 33.1334C163.709 33.1332 163.709 33.1329 163.71 33.1326C163.71 33.1324 163.71 33.1321 163.71 33.1318C163.71 33.1316 163.71 33.1313 163.71 33.131C163.71 33.1308 163.711 33.1305 163.711 33.1302C163.711 33.13 163.711 33.1297 163.711 33.1294C163.711 33.1292 163.711 33.1289 163.712 33.1286C163.712 33.1284 163.712 33.1281 163.712 33.1278C163.712 33.1276 163.712 33.1273 163.712 33.127C163.712 33.1268 163.713 33.1265 163.713 33.1262C163.713 33.126 163.713 33.1257 163.713 33.1254C163.713 33.1252 163.713 33.1249 163.714 33.1246C163.714 33.1244 163.714 33.1241 163.714 33.1238C163.714 33.1236 163.714 33.1233 163.714 33.123C163.714 33.1228 163.715 33.1225 163.715 33.1222C163.715 33.122 163.715 33.1217 163.715 33.1214C163.715 33.1212 163.715 33.1209 163.716 33.1206C163.716 33.1204 163.716 33.1201 163.716 33.1198C163.716 33.1196 163.716 33.1193 163.716 33.119C163.716 33.1188 163.717 33.1185 163.717 33.1182C163.717 33.118 163.717 33.1177 163.717 33.1174C163.717 33.1172 163.717 33.1169 163.718 33.1166C163.718 33.1164 163.718 33.1161 163.718 33.1158C163.718 33.1155 163.718 33.1153 163.718 33.115C163.718 33.1147 163.719 33.1145 163.719 33.1142C163.719 33.1139 163.719 33.1137 163.719 33.1134C163.719 33.1131 163.719 33.1129 163.72 33.1126C163.72 33.1123 163.72 33.1121 163.72 33.1118C163.72 33.1115 163.72 33.1113 163.72 33.111C163.72 33.1107 163.721 33.1105 163.721 33.1102C163.721 33.1099 163.721 33.1097 163.721 33.1094C163.721 33.1091 163.721 33.1089 163.722 33.1086C163.722 33.1083 163.722 33.1081 163.722 33.1078C163.722 33.1075 163.722 33.1073 163.722 33.107C163.722 33.1067 163.723 33.1065 163.723 33.1062C163.723 33.1059 163.723 33.1057 163.723 33.1054C163.723 33.1051 163.723 33.1049 163.724 33.1046C163.724 33.1043 163.724 33.1041 163.724 33.1038C163.724 33.1035 163.724 33.1033 163.724 33.103C163.724 33.1027 163.725 33.1025 163.725 33.1022C163.725 33.1019 163.725 33.1017 163.725 33.1014C163.725 33.1011 163.725 33.1009 163.726 33.1006C163.726 33.1003 163.726 33.1001 163.726 33.0998C163.726 33.0995 163.726 33.0993 163.726 33.099C163.726 33.0987 163.727 33.0985 163.727 33.0982C163.727 33.0979 163.727 33.0977 163.727 33.0974C163.727 33.0971 163.727 33.0969 163.728 33.0966C163.728 33.0963 163.728 33.0961 163.728 33.0958C163.728 33.0955 163.728 33.0953 163.728 33.095C163.728 33.0947 163.729 33.0945 163.729 33.0942C163.729 33.0939 163.729 33.0937 163.729 33.0934C163.729 33.0931 163.729 33.0929 163.73 33.0926C163.73 33.0923 163.73 33.0921 163.73 33.0918C163.73 33.0915 163.73 33.0912 163.73 33.091C163.73 33.0907 163.731 33.0904 163.731 33.0902C163.731 33.0899 163.731 33.0896 163.731 33.0894C163.731 33.0891 163.731 33.0888 163.732 33.0886C163.732 33.0883 163.732 33.088 163.732 33.0878C163.732 33.0875 163.732 33.0872 163.732 33.087C163.732 33.0867 163.733 33.0864 163.733 33.0862C163.733 33.0859 163.733 33.0856 163.733 33.0854C163.733 33.0851 163.733 33.0848 163.734 33.0846C163.734 33.0843 163.734 33.084 163.734 33.0838C163.734 33.0835 163.734 33.0832 163.734 33.083C163.734 33.0827 163.735 33.0824 163.735 33.0822C163.735 33.0819 163.735 33.0816 163.735 33.0814C163.735 33.0811 163.735 33.0808 163.736 33.0806C163.736 33.0803 163.736 33.08 163.736 33.0798C163.736 33.0795 163.736 33.0792 163.736 33.079C163.736 33.0787 163.737 33.0784 163.737 33.0782C163.737 33.0779 163.737 33.0776 163.737 33.0774C163.737 33.0771 163.737 33.0768 163.738 33.0766C163.738 33.0763 163.738 33.076 163.738 33.0758C163.738 33.0755 163.738 33.0752 163.738 33.075C163.738 33.0747 163.739 33.0744 163.739 33.0742C163.739 33.0739 163.739 33.0736 163.739 33.0734C163.739 33.0731 163.739 33.0728 163.74 33.0726C163.74 33.0723 163.74 33.072 163.74 33.0718C163.74 33.0715 163.74 33.0712 163.74 33.071C163.74 33.0707 163.741 33.0704 163.741 33.0702C163.741 33.0699 163.741 33.0696 163.741 33.0694C163.741 33.0691 163.741 33.0688 163.742 33.0686C163.742 33.0683 163.742 33.068 163.742 33.0678C163.742 33.0675 163.742 33.0672 163.742 33.0669C163.743 33.0667 163.743 33.0664 163.743 33.0661C163.743 33.0659 163.743 33.0656 163.743 33.0653C163.743 33.0651 163.743 33.0648 163.744 33.0645C163.744 33.0643 163.744 33.064 163.744 33.0637C163.744 33.0635 163.744 33.0632 163.744 33.0629C163.744 33.0627 163.745 33.0624 163.745 33.0621C163.745 33.0619 163.745 33.0616 163.745 33.0613C163.745 33.0611 163.745 33.0608 163.746 33.0605C163.746 33.0603 163.746 33.06 163.746 33.0597C163.746 33.0595 163.746 33.0592 163.746 33.0589C163.747 33.0587 163.747 33.0584 163.747 33.0581C163.747 33.0579 163.747 33.0576 163.747 33.0573C163.747 33.0571 163.747 33.0568 163.748 33.0565C163.748 33.0563 163.748 33.056 163.748 33.0557C163.748 33.0555 163.748 33.0552 163.748 33.0549C163.749 33.0547 163.749 33.0544 163.749 33.0541C163.749 33.0539 163.749 33.0536 163.749 33.0533C163.749 33.0531 163.749 33.0528 163.75 33.0525C163.75 33.0523 163.75 33.052 163.75 33.0517C163.75 33.0515 163.75 33.0512 163.75 33.0509C163.751 33.0507 163.751 33.0504 163.751 33.0501C163.751 33.0499 163.751 33.0496 163.751 33.0493C163.751 33.0491 163.751 33.0488 163.752 33.0485C163.752 33.0483 163.752 33.048 163.752 33.0477C163.752 33.0475 163.752 33.0472 163.752 33.0469C163.753 33.0467 163.753 33.0464 163.753 33.0461C163.753 33.0459 163.753 33.0456 163.753 33.0453C163.753 33.0451 163.753 33.0448 163.754 33.0445C163.754 33.0443 163.754 33.044 163.754 33.0437C163.754 33.0435 163.754 33.0432 163.754 33.0429C163.755 33.0427 163.755 33.0424 163.755 33.0421C163.755 33.0418 163.755 33.0416 163.755 33.0413C163.755 33.041 163.755 33.0408 163.756 33.0405C163.756 33.0402 163.756 33.04 163.756 33.0397C163.756 33.0394 163.756 33.0392 163.756 33.0389C163.757 33.0386 163.757 33.0384 163.757 33.0381C163.757 33.0378 163.757 33.0376 163.757 33.0373C163.757 33.037 163.757 33.0368 163.758 33.0365C163.758 33.0362 163.758 33.036 163.758 33.0357C163.758 33.0354 163.758 33.0352 163.758 33.0349C163.759 33.0346 163.759 33.0344 163.759 33.0341C163.759 33.0338 163.759 33.0336 163.759 33.0333C163.759 33.033 163.759 33.0328 163.76 33.0325C163.76 33.0322 163.76 33.032 163.76 33.0317C163.76 33.0314 163.76 33.0312 163.76 33.0309C163.761 33.0306 163.761 33.0304 163.761 33.0301C163.761 33.0298 163.761 33.0296 163.761 33.0293C163.761 33.029 163.761 33.0288 163.762 33.0285C163.762 33.0282 163.762 33.028 163.762 33.0277C163.762 33.0274 163.762 33.0272 163.762 33.0269C163.763 33.0266 163.763 33.0264 163.763 33.0261C163.763 33.0258 163.763 33.0256 163.763 33.0253C163.763 33.025 163.763 33.0248 163.764 33.0245C163.764 33.0242 163.764 33.024 163.764 33.0237C163.764 33.0234 163.764 33.0232 163.764 33.0229C163.765 33.0226 163.765 33.0224 163.765 33.0221C163.765 33.0218 163.765 33.0216 163.765 33.0213C163.765 33.021 163.765 33.0208 163.766 33.0205C163.766 33.0202 163.766 33.02 163.766 33.0197C163.766 33.0194 163.766 33.0192 163.766 33.0189C163.767 33.0186 163.767 33.0184 163.767 33.0181C163.767 33.0178 163.767 33.0175 163.767 33.0173C163.767 33.017 163.767 33.0167 163.768 33.0165C163.768 33.0162 163.768 33.0159 163.768 33.0157C163.768 33.0154 163.768 33.0151 163.768 33.0149C163.769 33.0146 163.769 33.0143 163.769 33.0141C163.769 33.0138 163.769 33.0135 163.769 33.0133C163.769 33.013 163.769 33.0127 163.77 33.0125C163.77 33.0122 163.77 33.0119 163.77 33.0117C163.77 33.0114 163.77 33.0111 163.77 33.0109C163.771 33.0106 163.771 33.0103 163.771 33.0101C163.771 33.0098 163.771 33.0095 163.771 33.0093C163.771 33.009 163.771 33.0087 163.772 33.0085C163.772 33.0082 163.772 33.0079 163.772 33.0077C163.772 33.0074 163.772 33.0071 163.772 33.0069C163.773 33.0066 163.773 33.0063 163.773 33.0061C163.773 33.0058 163.773 33.0055 163.773 33.0053C163.773 33.005 163.773 33.0047 163.774 33.0045C163.774 33.0042 163.774 33.0039 163.774 33.0037C163.774 33.0034 163.774 33.0031 163.774 33.0029C163.775 33.0026 163.775 33.0023 163.775 33.0021C163.775 33.0018 163.775 33.0015 163.775 33.0013C163.775 33.001 163.775 33.0007 163.776 33.0005C163.776 33.0002 163.776 32.9999 163.776 32.9997C163.776 32.9994 163.776 32.9991 163.776 32.9989C163.777 32.9986 163.777 32.9983 163.777 32.9981C163.777 32.9978 163.777 32.9975 163.777 32.9973C163.777 32.997 163.777 32.9967 163.778 32.9965C163.778 32.9962 163.778 32.9959 163.778 32.9957C163.778 32.9954 163.778 32.9951 163.778 32.9949C163.779 32.9946 163.779 32.9943 163.779 32.9941C163.779 32.9938 163.779 32.9935 163.779 32.9932C163.779 32.993 163.779 32.9927 163.78 32.9924C163.78 32.9922 163.78 32.9919 163.78 32.9916C163.78 32.9914 163.78 32.9911 163.78 32.9908C163.781 32.9906 163.781 32.9903 163.781 32.99C163.781 32.9898 163.781 32.9895 163.781 32.9892C163.781 32.989 163.781 32.9887 163.782 32.9884C163.782 32.9882 163.782 32.9879 163.782 32.9876C163.782 32.9874 163.782 32.9871 163.782 32.9868C163.783 32.9866 163.783 32.9863 163.783 32.986C163.783 32.9858 163.783 32.9855 163.783 32.9852C163.783 32.985 163.783 32.9847 163.784 32.9844C163.784 32.9842 163.784 32.9839 163.784 32.9836C163.784 32.9834 163.784 32.9831 163.784 32.9828C163.785 32.9826 163.785 32.9823 163.785 32.982C163.785 32.9818 163.785 32.9815 163.785 32.9812C163.785 32.981 163.785 32.9807 163.786 32.9804C163.786 32.9802 163.786 32.9799 163.786 32.9796C163.786 32.9794 163.786 32.9791 163.786 32.9788C163.787 32.9786 163.787 32.9783 163.787 32.978C163.787 32.9778 163.787 32.9775 163.787 32.9772C163.787 32.977 163.787 32.9767 163.788 32.9764C163.788 32.9762 163.788 32.9759 163.788 32.9756C163.788 32.9754 163.788 32.9751 163.788 32.9748C163.789 32.9746 163.789 32.9743 163.789 32.974C163.789 32.9738 163.789 32.9735 163.789 32.9732C163.789 32.973 163.789 32.9727 163.79 32.9724C163.79 32.9722 163.79 32.9719 163.79 32.9716C163.79 32.9714 163.79 32.9711 163.79 32.9708C163.791 32.9706 163.791 32.9703 163.791 32.97C163.791 32.9698 163.791 32.9695 163.791 32.9692C163.791 32.969 163.791 32.9687 163.792 32.9684C163.792 32.9681 163.792 32.9679 163.792 32.9676C163.792 32.9673 163.792 32.9671 163.792 32.9668C163.793 32.9665 163.793 32.9663 163.793 32.966C163.793 32.9657 163.793 32.9655 163.793 32.9652C163.793 32.9649 163.794 32.9647 163.794 32.9644C163.794 32.9641 163.794 32.9639 163.794 32.9636C163.794 32.9633 163.794 32.9631 163.794 32.9628C163.795 32.9625 163.795 32.9623 163.795 32.962C163.795 32.9617 163.795 32.9615 163.795 32.9612C163.795 32.9609 163.796 32.9607 163.796 32.9604C163.796 32.9601 163.796 32.9599 163.796 32.9596C163.796 32.9593 163.796 32.9591 163.796 32.9588C163.797 32.9585 163.797 32.9583 163.797 32.958C163.797 32.9577 163.797 32.9575 163.797 32.9572C163.797 32.9569 163.798 32.9567 163.798 32.9564C163.798 32.9561 163.798 32.9559 163.798 32.9556C163.798 32.9553 163.798 32.9551 163.798 32.9548C163.799 32.9545 163.799 32.9543 163.799 32.954C163.799 32.9537 163.799 32.9535 163.799 32.9532C163.799 32.9529 163.8 32.9527 163.8 32.9524C163.8 32.9521 163.8 32.9519 163.8 32.9516C163.8 32.9513 163.8 32.9511 163.8 32.9508C163.801 32.9505 163.801 32.9503 163.801 32.95C163.801 32.9497 163.801 32.9495 163.801 32.9492C163.801 32.9489 163.802 32.9487 163.802 32.9484C163.802 32.9481 163.802 32.9479 163.802 32.9476C163.802 32.9473 163.802 32.9471 163.802 32.9468C163.803 32.9465 163.803 32.9463 163.803 32.946C163.803 32.9457 163.803 32.9455 163.803 32.9452C163.803 32.9449 163.804 32.9447 163.804 32.9444C163.804 32.9441 163.804 32.9438 163.804 32.9436C163.804 32.9433 163.804 32.943 163.804 32.9428C163.805 32.9425 163.805 32.9422 163.805 32.942C163.805 32.9417 163.805 32.9414 163.805 32.9412C163.805 32.9409 163.806 32.9406 163.806 32.9404C163.806 32.9401 163.806 32.9398 163.806 32.9396C163.806 32.9393 163.806 32.939 163.806 32.9388C163.807 32.9385 163.807 32.9382 163.807 32.938C163.807 32.9377 163.807 32.9374 163.807 32.9372C163.807 32.9369 163.808 32.9366 163.808 32.9364C163.808 32.9361 163.808 32.9358 163.808 32.9356C163.808 32.9353 163.808 32.935 163.808 32.9348C163.809 32.9345 163.809 32.9342 163.809 32.934C163.809 32.9337 163.809 32.9334 163.809 32.9332C163.809 32.9329 163.81 32.9326 163.81 32.9324C163.81 32.9321 163.81 32.9318 163.81 32.9316C163.81 32.9313 163.81 32.931 163.81 32.9308C163.811 32.9305 163.811 32.9302 163.811 32.93C163.811 32.9297 163.811 32.9294 163.811 32.9292C163.811 32.9289 163.812 32.9286 163.812 32.9284C163.812 32.9281 163.812 32.9278 163.812 32.9276C163.812 32.9273 163.812 32.927 163.812 32.9268C163.813 32.9265 163.813 32.9262 163.813 32.926C163.813 32.9257 163.813 32.9254 163.813 32.9252C163.813 32.9249 163.814 32.9246 163.814 32.9244C163.814 32.9241 163.814 32.9238 163.814 32.9236C163.814 32.9233 163.814 32.923 163.814 32.9228C163.815 32.9225 163.815 32.9222 163.815 32.922C163.815 32.9217 163.815 32.9214 163.815 32.9212C163.815 32.9209 163.816 32.9206 163.816 32.9204C163.816 32.9201 163.816 32.9198 163.816 32.9195C163.816 32.9193 163.816 32.919 163.816 32.9187C163.817 32.9185 163.817 32.9182 163.817 32.9179C163.817 32.9177 163.817 32.9174 163.817 32.9171C163.817 32.9169 163.818 32.9166 163.818 32.9163C163.818 32.9161 163.818 32.9158 163.818 32.9155C163.818 32.9153 163.818 32.915 163.818 32.9147C163.819 32.9145 163.819 32.9142 163.819 32.9139C163.819 32.9137 163.819 32.9134 163.819 32.9131C163.819 32.9129 163.82 32.9126 163.82 32.9123C163.82 32.9121 163.82 32.9118 163.82 32.9115C163.82 32.9113 163.82 32.911 163.82 32.9107C163.821 32.9105 163.821 32.9102 163.821 32.9099C163.821 32.9097 163.821 32.9094 163.821 32.9091C163.821 32.9089 163.822 32.9086 163.822 32.9083C163.822 32.9081 163.822 32.9078 163.822 32.9075C163.822 32.9073 163.822 32.907 163.822 32.9067C163.823 32.9065 163.823 32.9062 163.823 32.9059C163.823 32.9057 163.823 32.9054 163.823 32.9051C163.823 32.9049 163.824 32.9046 163.824 32.9043C163.824 32.9041 163.824 32.9038 163.824 32.9035C163.824 32.9033 163.824 32.903 163.824 32.9027C163.825 32.9025 163.825 32.9022 163.825 32.9019C163.825 32.9017 163.825 32.9014 163.825 32.9011C163.825 32.9009 163.826 32.9006 163.826 32.9003C163.826 32.9001 163.826 32.8998 163.826 32.8995C163.826 32.8993 163.826 32.899 163.826 32.8987C163.827 32.8985 163.827 32.8982 163.827 32.8979C163.827 32.8977 163.827 32.8974 163.827 32.8971C163.827 32.8969 163.828 32.8966 163.828 32.8963C163.828 32.8961 163.828 32.8958 163.828 32.8955C163.828 32.8953 163.828 32.895 163.828 32.8947C163.829 32.8944 163.829 32.8942 163.829 32.8939C163.829 32.8936 163.829 32.8934 163.829 32.8931C163.829 32.8928 163.83 32.8926 163.83 32.8923C163.83 32.892 163.83 32.8918 163.83 32.8915C163.83 32.8912 163.83 32.891 163.83 32.8907C163.831 32.8904 163.831 32.8902 163.831 32.8899C163.831 32.8896 163.831 32.8894 163.831 32.8891C163.831 32.8888 163.832 32.8886 163.832 32.8883C163.832 32.888 163.832 32.8878 163.832 32.8875C163.832 32.8872 163.832 32.887 163.832 32.8867C163.833 32.8864 163.833 32.8862 163.833 32.8859C163.833 32.8856 163.833 32.8854 163.833 32.8851C163.833 32.8848 163.834 32.8846 163.834 32.8843C163.834 32.884 163.834 32.8838 163.834 32.8835C163.834 32.8832 163.834 32.883 163.834 32.8827C163.835 32.8824 163.835 32.8822 163.835 32.8819C163.835 32.8816 163.835 32.8814 163.835 32.8811C163.835 32.8808 163.836 32.8806 163.836 32.8803C163.836 32.88 163.836 32.8798 163.836 32.8795C163.836 32.8792 163.836 32.879 163.836 32.8787C163.837 32.8784 163.837 32.8782 163.837 32.8779C163.837 32.8776 163.837 32.8774 163.837 32.8771C163.837 32.8768 163.838 32.8766 163.838 32.8763C163.838 32.876 163.838 32.8758 163.838 32.8755C163.838 32.8752 163.838 32.875 163.838 32.8747C163.839 32.8744 163.839 32.8742 163.839 32.8739C163.839 32.8736 163.839 32.8734 163.839 32.8731C163.839 32.8728 163.84 32.8726 163.84 32.8723C163.84 32.872 163.84 32.8718 163.84 32.8715C163.84 32.8712 163.84 32.871 163.84 32.8707C163.841 32.8704 163.841 32.8701 163.841 32.8699C163.841 32.8696 163.841 32.8693 163.841 32.8691C163.841 32.8688 163.842 32.8685 163.842 32.8683C163.842 32.868 163.842 32.8677 163.842 32.8675C163.842 32.8672 163.842 32.8669 163.842 32.8667C163.843 32.8664 163.843 32.8661 163.843 32.8659C163.843 32.8656 163.843 32.8653 163.843 32.8651C163.843 32.8648 163.844 32.8645 163.844 32.8643C163.844 32.864 163.844 32.8637 163.844 32.8635C163.844 32.8632 163.844 32.8629 163.845 32.8627C163.845 32.8624 163.845 32.8621 163.845 32.8619C163.845 32.8616 163.845 32.8613 163.845 32.8611C163.845 32.8608 163.846 32.8605 163.846 32.8603C163.846 32.86 163.846 32.8597 163.846 32.8595C163.846 32.8592 163.846 32.8589 163.847 32.8587C163.847 32.8584 163.847 32.8581 163.847 32.8579C163.847 32.8576 163.847 32.8573 163.847 32.8571C163.847 32.8568 163.848 32.8565 163.848 32.8563C163.848 32.856 163.848 32.8557 163.848 32.8555C163.848 32.8552 163.848 32.8549 163.849 32.8547C163.849 32.8544 163.849 32.8541 163.849 32.8539C163.849 32.8536 163.849 32.8533 163.849 32.8531C163.849 32.8528 163.85 32.8525 163.85 32.8523C163.85 32.852 163.85 32.8517 163.85 32.8515C163.85 32.8512 163.85 32.8509 163.851 32.8507C163.851 32.8504 163.851 32.8501 163.851 32.8499C163.851 32.8496 163.851 32.8493 163.851 32.8491C163.851 32.8488 163.852 32.8485 163.852 32.8483C163.852 32.848 163.852 32.8477 163.852 32.8475C163.852 32.8472 163.852 32.8469 163.853 32.8467C163.853 32.8464 163.853 32.8461 163.853 32.8458C163.853 32.8456 163.853 32.8453 163.853 32.845C163.853 32.8448 163.854 32.8445 163.854 32.8442C163.854 32.844 163.854 32.8437 163.854 32.8434C163.854 32.8432 163.854 32.8429 163.855 32.8426C163.855 32.8424 163.855 32.8421 163.855 32.8418C163.855 32.8416 163.855 32.8413 163.855 32.841C163.855 32.8408 163.856 32.8405 163.856 32.8402C163.856 32.84 163.856 32.8397 163.856 32.8394C163.856 32.8392 163.856 32.8389 163.857 32.8386C163.857 32.8384 163.857 32.8381 163.857 32.8378C163.857 32.8376 163.857 32.8373 163.857 32.837C163.857 32.8368 163.858 32.8365 163.858 32.8362C163.858 32.836 163.858 32.8357 163.858 32.8354C163.858 32.8352 163.858 32.8349 163.859 32.8346C163.859 32.8344 163.859 32.8341 163.859 32.8338C163.859 32.8336 163.859 32.8333 163.859 32.833C163.859 32.8328 163.86 32.8325 163.86 32.8322C163.86 32.832 163.86 32.8317 163.86 32.8314L163.323 32.5631ZM163.128 32.9555C162.109 34.6902 160.645 35.5418 158.704 35.5418V36.1418C160.865 36.1418 162.523 35.1705 163.645 33.2594L163.128 32.9555ZM158.706 35.5418C157.158 35.5308 156.04 35.0802 155.298 34.234C154.549 33.3804 154.139 32.0752 154.116 30.2668L153.516 30.2742C153.54 32.1572 153.967 33.6263 154.847 34.6297C155.734 35.6407 157.037 36.13 158.702 36.1418L158.706 35.5418ZM154.116 30.2705V21.6914H153.516V30.2705H154.116ZM153.816 21.3914H151.834V21.9914H153.816V21.3914ZM152.134 21.6914V20.8027H151.534V21.6914H152.134ZM151.834 21.1027H158.157V20.5027H151.834V21.1027ZM157.857 20.8027V30.8516H158.457V20.8027H157.857ZM157.857 30.8516C157.857 31.1849 157.881 31.5078 157.929 31.82L158.522 31.7288C158.479 31.4486 158.457 31.1563 158.457 30.8516H157.857ZM157.929 31.8187C158.048 32.6192 158.314 33.2611 158.757 33.7041C159.206 34.1532 159.804 34.3645 160.516 34.3645V33.7645C159.928 33.7645 159.495 33.5941 159.181 33.2798C158.861 32.9594 158.631 32.4563 158.522 31.7301L157.929 31.8187ZM160.516 34.3645C160.906 34.3645 161.291 34.2732 161.668 34.097L161.414 33.5533C161.108 33.6962 160.809 33.7645 160.516 33.7645V34.3645ZM161.675 34.0935C162.942 33.4599 163.623 32.1666 163.788 30.3315L163.19 30.2779C163.036 31.9974 162.418 33.0511 161.407 33.5569L161.675 34.0935ZM163.789 30.3059L163.823 21.6926L163.223 21.6902L163.189 30.3035L163.789 30.3059ZM163.523 21.3914H161.849V21.9914H163.523V21.3914ZM162.149 21.6914V20.8027H161.549V21.6914H162.149ZM161.849 21.1027H167.864V20.5027H161.849V21.1027ZM167.564 20.8027V34.6113H168.164V20.8027H167.564ZM167.864 34.9113H169.026V34.3113H167.864V34.9113ZM180.792 34.6455L180.733 34.94L180.747 34.942L180.792 34.6455ZM181.237 35.5V35.8H181.537V35.5H181.237ZM171.564 35.5H171.264V35.8H171.564V35.5ZM171.564 34.6113V34.3113H171.264V34.6113H171.564ZM172.35 34.543L172.299 34.2472L172.291 34.2488L172.35 34.543ZM173.546 21.6914H173.846V21.3914H173.546V21.6914ZM171.564 21.6914H171.264V21.9914H171.564V21.6914ZM171.564 20.8027V20.5027H171.264V20.8027H171.564ZM177.545 20.8027L177.844 20.7802L177.824 20.5027H177.545V20.8027ZM177.785 23.9814L177.485 24.004L178.064 24.0911L177.785 23.9814ZM178.878 22.2041L178.662 21.9962L178.653 22.0065L178.878 22.2041ZM183.458 20.6318L183.535 20.3418L183.531 20.3408L183.458 20.6318ZM184.928 23.708L184.656 23.5823L184.654 23.5855L184.928 23.708ZM182.228 24.9043L182.121 25.1846L182.131 25.1885L182.142 25.1916L182.228 24.9043ZM180.895 23.5371L181.156 23.39L181.156 23.3895L180.895 23.5371ZM179.63 22.8535L179.512 22.5778L179.502 22.5823L179.491 22.5876L179.63 22.8535ZM177.887 27.2285L177.588 27.2086L177.587 27.2185V27.2285H177.887ZM177.887 34.6113H177.587V34.9113H177.887V34.6113ZM180.416 34.9113C180.537 34.9113 180.642 34.9214 180.734 34.9397L180.851 34.3513C180.715 34.3241 180.57 34.3113 180.416 34.3113V34.9113ZM180.747 34.942C180.793 34.9491 180.826 34.9671 180.859 35.0317C180.901 35.1125 180.937 35.2591 180.937 35.5H181.537C181.537 35.2168 181.498 34.9589 181.392 34.7549C181.277 34.5347 181.088 34.3875 180.838 34.349L180.747 34.942ZM181.237 35.2H171.564V35.8H181.237V35.2ZM171.864 35.5V34.6113H171.264V35.5H171.864ZM171.564 34.9113C171.875 34.9113 172.157 34.8875 172.409 34.8371L172.291 34.2488C172.087 34.2896 171.845 34.3113 171.564 34.3113V34.9113ZM172.401 34.8387C172.864 34.7592 173.24 34.5464 173.493 34.1852C173.74 33.8322 173.846 33.3708 173.846 32.834H173.246C173.246 33.2998 173.153 33.6245 173.001 33.8411C172.856 34.0496 172.633 34.1901 172.299 34.2473L172.401 34.8387ZM173.846 32.834V21.6914H173.246V32.834H173.846ZM173.546 21.3914H171.564V21.9914H173.546V21.3914ZM171.864 21.6914V20.8027H171.264V21.6914H171.864ZM171.564 21.1027H177.545V20.5027H171.564V21.1027ZM177.246 20.8253L177.485 24.004L178.084 23.9589L177.844 20.7802L177.246 20.8253ZM178.064 24.0911C178.301 23.4872 178.647 22.9241 179.104 22.4017L178.653 22.0065C178.153 22.5778 177.769 23.1997 177.505 23.8717L178.064 24.0911ZM179.095 22.4118C180.115 21.348 181.281 20.8293 182.604 20.8293V20.2293C181.101 20.2293 179.783 20.8271 178.662 21.9964L179.095 22.4118ZM182.604 20.8293C182.877 20.8293 183.137 20.8608 183.386 20.9229L183.531 20.3408C183.233 20.2662 182.923 20.2293 182.604 20.2293V20.8293ZM183.381 20.9218C183.894 21.0577 184.249 21.282 184.478 21.5765C184.706 21.8706 184.833 22.265 184.833 22.7852H185.433C185.433 22.166 185.281 21.6318 184.951 21.2082C184.622 20.7849 184.14 20.5022 183.535 20.3419L183.381 20.9218ZM184.833 22.7852C184.833 23.0598 184.775 23.3246 184.656 23.5823L185.201 23.8337C185.355 23.499 185.433 23.1486 185.433 22.7852H184.833ZM184.654 23.5855C184.479 23.978 184.253 24.2536 183.984 24.4325C183.717 24.6109 183.387 24.7068 182.98 24.7068V25.3068C183.485 25.3068 183.935 25.1863 184.317 24.9317C184.698 24.6777 184.99 24.3039 185.202 23.8305L184.654 23.5855ZM182.98 24.7068C182.731 24.7068 182.51 24.6758 182.314 24.6169L182.142 25.1916C182.401 25.2695 182.682 25.3068 182.98 25.3068V24.7068ZM182.335 24.624C181.952 24.4782 181.552 24.0941 181.156 23.39L180.633 23.6842C181.058 24.4385 181.547 24.9658 182.121 25.1846L182.335 24.624ZM181.156 23.3895C181.001 23.1151 180.842 22.8905 180.675 22.7309C180.511 22.5731 180.309 22.451 180.075 22.451V23.051C180.091 23.051 180.151 23.0598 180.26 23.1641C180.367 23.2666 180.493 23.435 180.634 23.6847L181.156 23.3895ZM180.075 22.451C179.888 22.451 179.699 22.4976 179.512 22.5778L179.748 23.1293C179.88 23.0728 179.988 23.051 180.075 23.051V22.451ZM179.491 22.5876C178.906 22.8938 178.471 23.4592 178.164 24.2293C177.857 24.9986 177.669 25.9957 177.588 27.2086L178.186 27.2485C178.265 26.0688 178.447 25.1404 178.721 24.4514C178.995 23.7631 179.352 23.3373 179.769 23.1194L179.491 22.5876ZM177.587 27.2285V34.6113H178.187V27.2285H177.587ZM177.887 34.9113H180.416V34.3113H177.887V34.9113Z" fill="black" mask="url(#path-5-outside-2_497_1545)"/>
</svg>
